<mxfile host="Electron" modified="2025-03-12T16:36:42.259Z" agent="Mozilla/5.0 (Windows NT 10.0; Win64; x64) AppleWebKit/537.36 (KHTML, like Gecko) draw.io/24.0.4 Chrome/120.0.6099.109 Electron/28.1.0 Safari/537.36" etag="irNvvlJohVW8fdOuAHaw" version="24.0.4" type="device" pages="2">
  <diagram name="System View" id="r58yeXicvnXeVhzd3WK1">
    <mxGraphModel dx="1994" dy="1859" grid="1" gridSize="10" guides="1" tooltips="1" connect="1" arrows="1" fold="1" page="1" pageScale="1" pageWidth="827" pageHeight="1169" math="0" shadow="0">
      <root>
        <mxCell id="0" />
        <mxCell id="1" parent="0" />
        <mxCell id="E-1cDGF12q2lx50jinpV-3" value="" style="rounded=0;whiteSpace=wrap;html=1;labelBackgroundColor=none;fontSize=17;" parent="1" vertex="1">
          <mxGeometry x="980" y="710" width="210" height="180" as="geometry" />
        </mxCell>
        <mxCell id="L5MEKKil3N5dobx29khn-57" value="" style="rounded=0;whiteSpace=wrap;html=1;fillColor=#b1ddf0;strokeColor=#10739e;fontSize=16;" parent="1" vertex="1">
          <mxGeometry x="-400" y="440" width="1320" height="270" as="geometry" />
        </mxCell>
        <mxCell id="L5MEKKil3N5dobx29khn-22" value="" style="rounded=0;whiteSpace=wrap;html=1;fillColor=#f5f5f5;strokeColor=#666666;fontColor=#333333;fontSize=16;" parent="1" vertex="1">
          <mxGeometry x="-400" width="1320" height="400" as="geometry" />
        </mxCell>
        <mxCell id="L5MEKKil3N5dobx29khn-13" value="Workflows" style="rounded=0;whiteSpace=wrap;html=1;fontSize=16;" parent="1" vertex="1">
          <mxGeometry x="1000" y="30" width="120" height="80" as="geometry" />
        </mxCell>
        <mxCell id="L5MEKKil3N5dobx29khn-14" value="Workflows" style="rounded=0;whiteSpace=wrap;html=1;fontSize=16;" parent="1" vertex="1">
          <mxGeometry x="1000" y="132.5" width="120" height="80" as="geometry" />
        </mxCell>
        <mxCell id="L5MEKKil3N5dobx29khn-15" value="Workflows" style="rounded=0;whiteSpace=wrap;html=1;fontSize=16;" parent="1" vertex="1">
          <mxGeometry x="1000" y="230" width="120" height="80" as="geometry" />
        </mxCell>
        <mxCell id="L5MEKKil3N5dobx29khn-23" value="&lt;span style=&quot;color: rgb(0, 0, 0); font-family: Helvetica; font-size: 16px; font-style: normal; font-variant-ligatures: normal; font-variant-caps: normal; font-weight: 400; letter-spacing: normal; orphans: 2; text-indent: 0px; text-transform: none; widows: 2; word-spacing: 0px; -webkit-text-stroke-width: 0px; text-decoration-thickness: initial; text-decoration-style: initial; text-decoration-color: initial; float: none; display: inline !important;&quot;&gt;«Domain»&lt;/span&gt;&lt;br style=&quot;border-color: var(--border-color); color: rgb(0, 0, 0); font-family: Helvetica; font-size: 16px; font-style: normal; font-variant-ligatures: normal; font-variant-caps: normal; font-weight: 400; letter-spacing: normal; orphans: 2; text-indent: 0px; text-transform: none; widows: 2; word-spacing: 0px; -webkit-text-stroke-width: 0px; text-decoration-thickness: initial; text-decoration-style: initial; text-decoration-color: initial;&quot;&gt;&lt;b style=&quot;font-size: 16px;&quot;&gt;ScanHub Core&lt;/b&gt;" style="text;whiteSpace=wrap;html=1;labelBackgroundColor=none;align=center;rounded=0;fontSize=16;" parent="1" vertex="1">
          <mxGeometry x="-400" width="1320" height="50" as="geometry" />
        </mxCell>
        <mxCell id="L5MEKKil3N5dobx29khn-42" value="" style="endArrow=none;startArrow=classic;html=1;rounded=0;edgeStyle=orthogonalEdgeStyle;exitX=0;exitY=0.5;exitDx=0;exitDy=0;endFill=0;entryX=0.25;entryY=1;entryDx=0;entryDy=0;fontSize=16;" parent="1" source="L5MEKKil3N5dobx29khn-15" target="L5MEKKil3N5dobx29khn-12" edge="1">
          <mxGeometry width="50" height="50" relative="1" as="geometry">
            <mxPoint x="980" y="310" as="sourcePoint" />
            <mxPoint x="940" y="260" as="targetPoint" />
            <Array as="points">
              <mxPoint x="960" y="270" />
              <mxPoint x="960" y="237" />
            </Array>
          </mxGeometry>
        </mxCell>
        <mxCell id="L5MEKKil3N5dobx29khn-67" value="" style="rounded=0;whiteSpace=wrap;html=1;fillColor=#b1ddf0;strokeColor=#10739e;fontSize=16;" parent="1" vertex="1">
          <mxGeometry x="-400" y="740" width="1320" height="130" as="geometry" />
        </mxCell>
        <mxCell id="L5MEKKil3N5dobx29khn-68" value="&lt;span style=&quot;color: rgb(0, 0, 0); font-family: Helvetica; font-size: 16px; font-style: normal; font-variant-ligatures: normal; font-variant-caps: normal; font-weight: 400; letter-spacing: normal; orphans: 2; text-indent: 0px; text-transform: none; widows: 2; word-spacing: 0px; -webkit-text-stroke-width: 0px; text-decoration-thickness: initial; text-decoration-style: initial; text-decoration-color: initial; float: none; display: inline !important;&quot;&gt;«Layer»&lt;/span&gt;&lt;br style=&quot;border-color: var(--border-color); color: rgb(0, 0, 0); font-family: Helvetica; font-size: 16px; font-style: normal; font-variant-ligatures: normal; font-variant-caps: normal; font-weight: 400; letter-spacing: normal; orphans: 2; text-indent: 0px; text-transform: none; widows: 2; word-spacing: 0px; -webkit-text-stroke-width: 0px; text-decoration-thickness: initial; text-decoration-style: initial; text-decoration-color: initial;&quot;&gt;&lt;b style=&quot;font-size: 16px;&quot;&gt;Governance&lt;/b&gt;" style="text;whiteSpace=wrap;html=1;labelBackgroundColor=none;align=center;rounded=0;fontSize=16;" parent="1" vertex="1">
          <mxGeometry x="-400" y="740" width="1320" height="50" as="geometry" />
        </mxCell>
        <mxCell id="L5MEKKil3N5dobx29khn-69" value="AuthZ/AuthN" style="rounded=0;whiteSpace=wrap;html=1;fontSize=16;" parent="1" vertex="1">
          <mxGeometry x="200" y="790" width="120" height="60" as="geometry" />
        </mxCell>
        <mxCell id="W92m8VuoNIIunjYURMXv-19" value="" style="group;rounded=0;fontSize=16;fillColor=#f8cecc;strokeColor=#b85450;" parent="1" vertex="1" connectable="0">
          <mxGeometry x="-720" y="360" width="240" height="200" as="geometry" />
        </mxCell>
        <mxCell id="L5MEKKil3N5dobx29khn-34" value="" style="rounded=0;whiteSpace=wrap;html=1;fontSize=16;fillColor=#f8cecc;strokeColor=#b85450;" parent="W92m8VuoNIIunjYURMXv-19" vertex="1">
          <mxGeometry width="240" height="200" as="geometry" />
        </mxCell>
        <mxCell id="L5MEKKil3N5dobx29khn-35" value="&lt;span style=&quot;color: rgb(0, 0, 0); font-family: Helvetica; font-size: 16px; font-style: normal; font-variant-ligatures: normal; font-variant-caps: normal; letter-spacing: normal; orphans: 2; text-indent: 0px; text-transform: none; widows: 2; word-spacing: 0px; -webkit-text-stroke-width: 0px; text-decoration-thickness: initial; text-decoration-style: initial; text-decoration-color: initial; float: none; display: inline !important;&quot;&gt;«&lt;span style=&quot;border-color: var(--border-color); font-size: 16px;&quot;&gt;Conected Device&lt;/span&gt;&lt;b style=&quot;font-weight: 400; border-color: var(--border-color); font-size: 16px;&quot;&gt;&amp;nbsp;&lt;/b&gt;»&lt;/span&gt;&lt;br style=&quot;border-color: var(--border-color); color: rgb(0, 0, 0); font-family: Helvetica; font-size: 16px; font-style: normal; font-variant-ligatures: normal; font-variant-caps: normal; font-weight: 400; letter-spacing: normal; orphans: 2; text-indent: 0px; text-transform: none; widows: 2; word-spacing: 0px; -webkit-text-stroke-width: 0px; text-decoration-thickness: initial; text-decoration-style: initial; text-decoration-color: initial;&quot;&gt;&lt;b style=&quot;font-size: 16px;&quot;&gt;Other Modality&lt;/b&gt;" style="text;whiteSpace=wrap;html=1;labelBackgroundColor=none;align=center;rounded=0;fontSize=16;" parent="W92m8VuoNIIunjYURMXv-19" vertex="1">
          <mxGeometry width="240" height="50" as="geometry" />
        </mxCell>
        <mxCell id="L5MEKKil3N5dobx29khn-36" value="ScanHub Connector" style="rounded=0;whiteSpace=wrap;html=1;fontSize=16;" parent="W92m8VuoNIIunjYURMXv-19" vertex="1">
          <mxGeometry x="57.391304347826086" y="80" width="125.21739130434783" height="60" as="geometry" />
        </mxCell>
        <mxCell id="W92m8VuoNIIunjYURMXv-20" value="" style="group;rounded=0;fontSize=16;" parent="1" vertex="1" connectable="0">
          <mxGeometry x="-720" width="240" height="320" as="geometry" />
        </mxCell>
        <mxCell id="L5MEKKil3N5dobx29khn-16" value="" style="rounded=0;whiteSpace=wrap;html=1;container=0;fontSize=16;" parent="W92m8VuoNIIunjYURMXv-20" vertex="1">
          <mxGeometry width="240" height="320" as="geometry" />
        </mxCell>
        <mxCell id="L5MEKKil3N5dobx29khn-37" value="" style="rounded=0;whiteSpace=wrap;html=1;container=0;fillColor=#bac8d3;strokeColor=#23445d;fontSize=16;" parent="W92m8VuoNIIunjYURMXv-20" vertex="1">
          <mxGeometry x="30" y="60" width="180" height="235" as="geometry" />
        </mxCell>
        <mxCell id="L5MEKKil3N5dobx29khn-29" value="Sequence Provider" style="rounded=0;whiteSpace=wrap;html=1;container=0;fontSize=16;" parent="W92m8VuoNIIunjYURMXv-20" vertex="1">
          <mxGeometry x="60" y="210" width="120" height="60" as="geometry" />
        </mxCell>
        <mxCell id="L5MEKKil3N5dobx29khn-30" value="&lt;span style=&quot;color: rgb(0, 0, 0); font-family: Helvetica; font-size: 16px; font-style: normal; font-variant-ligatures: normal; font-variant-caps: normal; letter-spacing: normal; orphans: 2; text-indent: 0px; text-transform: none; widows: 2; word-spacing: 0px; -webkit-text-stroke-width: 0px; text-decoration-thickness: initial; text-decoration-style: initial; text-decoration-color: initial; float: none; display: inline !important;&quot;&gt;«&lt;span style=&quot;border-color: var(--border-color); font-size: 16px;&quot;&gt;Conected Device&lt;/span&gt;&lt;b style=&quot;font-weight: 400; border-color: var(--border-color); font-size: 16px;&quot;&gt;&amp;nbsp;&lt;/b&gt;»&lt;/span&gt;&lt;br style=&quot;border-color: var(--border-color); color: rgb(0, 0, 0); font-family: Helvetica; font-size: 16px; font-style: normal; font-variant-ligatures: normal; font-variant-caps: normal; font-weight: 400; letter-spacing: normal; orphans: 2; text-indent: 0px; text-transform: none; widows: 2; word-spacing: 0px; -webkit-text-stroke-width: 0px; text-decoration-thickness: initial; text-decoration-style: initial; text-decoration-color: initial;&quot;&gt;&lt;b style=&quot;font-size: 16px;&quot;&gt;MR&lt;/b&gt;" style="text;whiteSpace=wrap;html=1;labelBackgroundColor=none;align=center;container=0;rounded=0;fontSize=16;" parent="W92m8VuoNIIunjYURMXv-20" vertex="1">
          <mxGeometry width="240" height="50" as="geometry" />
        </mxCell>
        <mxCell id="L5MEKKil3N5dobx29khn-31" value="ScanHub Connector" style="rounded=0;whiteSpace=wrap;html=1;container=0;fontSize=16;" parent="W92m8VuoNIIunjYURMXv-20" vertex="1">
          <mxGeometry x="60" y="130" width="120" height="60" as="geometry" />
        </mxCell>
        <mxCell id="L5MEKKil3N5dobx29khn-39" value="«MR»&lt;br style=&quot;border-color: var(--border-color); font-size: 16px;&quot;&gt;&lt;b style=&quot;font-size: 16px;&quot;&gt;Console Application&lt;/b&gt;" style="text;whiteSpace=wrap;html=1;align=center;verticalAlign=middle;container=0;rounded=0;fontSize=16;" parent="W92m8VuoNIIunjYURMXv-20" vertex="1">
          <mxGeometry x="30" y="60" width="180" height="40" as="geometry" />
        </mxCell>
        <mxCell id="L5MEKKil3N5dobx29khn-40" value="" style="endArrow=none;startArrow=classic;html=1;rounded=0;exitX=0;exitY=0.5;exitDx=0;exitDy=0;edgeStyle=orthogonalEdgeStyle;startFill=1;endFill=0;entryX=0.75;entryY=1;entryDx=0;entryDy=0;fontSize=16;" parent="1" source="L5MEKKil3N5dobx29khn-13" target="L5MEKKil3N5dobx29khn-12" edge="1">
          <mxGeometry width="50" height="50" relative="1" as="geometry">
            <mxPoint x="720" y="380" as="sourcePoint" />
            <mxPoint x="940" y="150" as="targetPoint" />
            <Array as="points">
              <mxPoint x="960" y="70" />
              <mxPoint x="960" y="107" />
            </Array>
          </mxGeometry>
        </mxCell>
        <mxCell id="L5MEKKil3N5dobx29khn-2" value="" style="rounded=0;whiteSpace=wrap;html=1;fillColor=#b1ddf0;strokeColor=#10739e;fontSize=16;" parent="1" vertex="1">
          <mxGeometry x="580" y="70" width="290" height="210" as="geometry" />
        </mxCell>
        <mxCell id="W92m8VuoNIIunjYURMXv-34" value="" style="group;rounded=0;fontSize=16;fillColor=#f8cecc;strokeColor=#b85450;container=0;" parent="1" vertex="1" connectable="0">
          <mxGeometry x="1000" y="380" width="170" height="80" as="geometry" />
        </mxCell>
        <mxCell id="W92m8VuoNIIunjYURMXv-35" value="" style="endArrow=none;startArrow=classic;html=1;rounded=0;exitX=0;exitY=0.5;exitDx=0;exitDy=0;edgeStyle=orthogonalEdgeStyle;startFill=1;endFill=0;entryX=0.882;entryY=1.014;entryDx=0;entryDy=0;fontSize=16;entryPerimeter=0;" parent="1" source="L5MEKKil3N5dobx29khn-62" target="L5MEKKil3N5dobx29khn-10" edge="1">
          <mxGeometry width="50" height="50" relative="1" as="geometry">
            <mxPoint x="1010" y="199" as="sourcePoint" />
            <mxPoint x="720" y="220" as="targetPoint" />
            <Array as="points">
              <mxPoint x="776" y="420" />
            </Array>
          </mxGeometry>
        </mxCell>
        <mxCell id="W92m8VuoNIIunjYURMXv-36" value="" style="endArrow=none;startArrow=classic;html=1;rounded=0;exitX=1;exitY=0;exitDx=0;exitDy=52.5;edgeStyle=orthogonalEdgeStyle;startFill=1;endFill=0;entryX=0.5;entryY=1;entryDx=0;entryDy=0;exitPerimeter=0;jumpStyle=arc;jumpSize=10;fontSize=16;" parent="1" source="L5MEKKil3N5dobx29khn-59" target="L5MEKKil3N5dobx29khn-10" edge="1">
          <mxGeometry width="50" height="50" relative="1" as="geometry">
            <mxPoint x="1010" y="430" as="sourcePoint" />
            <mxPoint x="730" y="229" as="targetPoint" />
            <Array as="points">
              <mxPoint x="610" y="620" />
              <mxPoint x="610" y="420" />
              <mxPoint x="723" y="420" />
            </Array>
          </mxGeometry>
        </mxCell>
        <mxCell id="L5MEKKil3N5dobx29khn-45" value="" style="rounded=0;whiteSpace=wrap;html=1;fillColor=#b1ddf0;strokeColor=#10739e;fontSize=16;" parent="1" vertex="1">
          <mxGeometry x="-20" y="70" width="570" height="210" as="geometry" />
        </mxCell>
        <mxCell id="L5MEKKil3N5dobx29khn-50" value="Exam Manager" style="rounded=0;whiteSpace=wrap;html=1;fontSize=16;" parent="1" vertex="1">
          <mxGeometry x="180.5" y="160" width="120" height="60" as="geometry" />
        </mxCell>
        <mxCell id="W92m8VuoNIIunjYURMXv-38" value="" style="endArrow=none;startArrow=classic;html=1;rounded=0;exitX=1;exitY=0.5;exitDx=0;exitDy=0;edgeStyle=orthogonalEdgeStyle;startFill=1;endFill=0;entryX=0.25;entryY=1;entryDx=0;entryDy=0;exitPerimeter=0;jumpStyle=arc;jumpSize=10;fontSize=16;" parent="1" source="L5MEKKil3N5dobx29khn-66" target="L5MEKKil3N5dobx29khn-10" edge="1">
          <mxGeometry width="50" height="50" relative="1" as="geometry">
            <mxPoint x="340" y="667" as="sourcePoint" />
            <mxPoint x="695" y="229" as="targetPoint" />
            <Array as="points">
              <mxPoint x="-40" y="575" />
              <mxPoint x="-40" y="350" />
              <mxPoint x="688" y="350" />
            </Array>
          </mxGeometry>
        </mxCell>
        <mxCell id="L5MEKKil3N5dobx29khn-11" value="&lt;span style=&quot;color: rgb(0, 0, 0); font-family: Helvetica; font-size: 16px; font-style: normal; font-variant-ligatures: normal; font-variant-caps: normal; font-weight: 400; letter-spacing: normal; orphans: 2; text-indent: 0px; text-transform: none; widows: 2; word-spacing: 0px; -webkit-text-stroke-width: 0px; text-decoration-thickness: initial; text-decoration-style: initial; text-decoration-color: initial; float: none; display: inline !important;&quot;&gt;«Layer»&lt;/span&gt;&lt;br style=&quot;border-color: var(--border-color); color: rgb(0, 0, 0); font-family: Helvetica; font-size: 16px; font-style: normal; font-variant-ligatures: normal; font-variant-caps: normal; font-weight: 400; letter-spacing: normal; orphans: 2; text-indent: 0px; text-transform: none; widows: 2; word-spacing: 0px; -webkit-text-stroke-width: 0px; text-decoration-thickness: initial; text-decoration-style: initial; text-decoration-color: initial;&quot;&gt;&lt;b style=&quot;font-size: 16px;&quot;&gt;Workflow&lt;/b&gt;" style="text;whiteSpace=wrap;html=1;labelBackgroundColor=none;align=center;rounded=0;fontSize=16;" parent="1" vertex="1">
          <mxGeometry x="578.2" y="70" width="290.00000000000006" height="50" as="geometry" />
        </mxCell>
        <mxCell id="L5MEKKil3N5dobx29khn-41" value="" style="endArrow=none;startArrow=classic;html=1;rounded=0;edgeStyle=orthogonalEdgeStyle;startFill=1;endFill=0;exitX=0;exitY=0.5;exitDx=0;exitDy=0;entryX=0.5;entryY=1;entryDx=0;entryDy=0;fontSize=16;" parent="1" source="L5MEKKil3N5dobx29khn-14" target="L5MEKKil3N5dobx29khn-12" edge="1">
          <mxGeometry width="50" height="50" relative="1" as="geometry">
            <mxPoint x="970" y="210" as="sourcePoint" />
            <mxPoint x="960" y="210" as="targetPoint" />
            <Array as="points" />
          </mxGeometry>
        </mxCell>
        <mxCell id="L5MEKKil3N5dobx29khn-17" value="" style="rounded=0;whiteSpace=wrap;html=1;fillColor=#b1ddf0;strokeColor=#10739e;fontSize=16;" parent="1" vertex="1">
          <mxGeometry x="-370" y="70" width="320" height="210" as="geometry" />
        </mxCell>
        <mxCell id="L5MEKKil3N5dobx29khn-18" value="&lt;span style=&quot;color: rgb(0, 0, 0); font-family: Helvetica; font-size: 16px; font-style: normal; font-variant-ligatures: normal; font-variant-caps: normal; font-weight: 400; letter-spacing: normal; orphans: 2; text-indent: 0px; text-transform: none; widows: 2; word-spacing: 0px; -webkit-text-stroke-width: 0px; text-decoration-thickness: initial; text-decoration-style: initial; text-decoration-color: initial; float: none; display: inline !important;&quot;&gt;«Layer»&lt;/span&gt;&lt;br style=&quot;border-color: var(--border-color); color: rgb(0, 0, 0); font-family: Helvetica; font-size: 16px; font-style: normal; font-variant-ligatures: normal; font-variant-caps: normal; font-weight: 400; letter-spacing: normal; orphans: 2; text-indent: 0px; text-transform: none; widows: 2; word-spacing: 0px; -webkit-text-stroke-width: 0px; text-decoration-thickness: initial; text-decoration-style: initial; text-decoration-color: initial;&quot;&gt;&lt;b style=&quot;font-size: 16px;&quot;&gt;Acquistion&lt;/b&gt;" style="text;whiteSpace=wrap;html=1;labelBackgroundColor=none;align=center;rounded=0;fontSize=16;" parent="1" vertex="1">
          <mxGeometry x="-370" y="70" width="320" height="50" as="geometry" />
        </mxCell>
        <mxCell id="L5MEKKil3N5dobx29khn-1" value="" style="rounded=0;whiteSpace=wrap;html=1;fillColor=#b1ddf0;strokeColor=#10739e;fillStyle=auto;fontSize=16;" parent="1" vertex="1">
          <mxGeometry x="-160" y="-280" width="840" height="240" as="geometry" />
        </mxCell>
        <mxCell id="L5MEKKil3N5dobx29khn-7" value="&lt;span style=&quot;color: rgb(0, 0, 0); font-family: Helvetica; font-size: 16px; font-style: normal; font-variant-ligatures: normal; font-variant-caps: normal; font-weight: 400; letter-spacing: normal; orphans: 2; text-indent: 0px; text-transform: none; widows: 2; word-spacing: 0px; -webkit-text-stroke-width: 0px; text-decoration-thickness: initial; text-decoration-style: initial; text-decoration-color: initial; float: none; display: inline !important;&quot;&gt;«Layer»&lt;/span&gt;&lt;br style=&quot;border-color: var(--border-color); color: rgb(0, 0, 0); font-family: Helvetica; font-size: 16px; font-style: normal; font-variant-ligatures: normal; font-variant-caps: normal; font-weight: 400; letter-spacing: normal; orphans: 2; text-indent: 0px; text-transform: none; widows: 2; word-spacing: 0px; -webkit-text-stroke-width: 0px; text-decoration-thickness: initial; text-decoration-style: initial; text-decoration-color: initial;&quot;&gt;&lt;b style=&quot;border-color: var(--border-color); color: rgb(0, 0, 0); font-family: Helvetica; font-size: 16px; font-style: normal; font-variant-ligatures: normal; font-variant-caps: normal; letter-spacing: normal; orphans: 2; text-indent: 0px; text-transform: none; widows: 2; word-spacing: 0px; -webkit-text-stroke-width: 0px; text-decoration-thickness: initial; text-decoration-style: initial; text-decoration-color: initial;&quot;&gt;Application&lt;/b&gt;" style="text;whiteSpace=wrap;html=1;labelBackgroundColor=none;align=center;rounded=0;fontSize=16;" parent="1" vertex="1">
          <mxGeometry x="-160" y="-280" width="840" height="50" as="geometry" />
        </mxCell>
        <mxCell id="L5MEKKil3N5dobx29khn-8" value="" style="rounded=0;whiteSpace=wrap;html=1;fillColor=#f9f7ed;strokeColor=#36393d;fontSize=16;" parent="1" vertex="1">
          <mxGeometry x="-120" y="-220" width="760" height="160" as="geometry" />
        </mxCell>
        <mxCell id="L5MEKKil3N5dobx29khn-54" value="&lt;span style=&quot;color: rgb(0, 0, 0); font-family: Helvetica; font-size: 16px; font-style: normal; font-variant-ligatures: normal; font-variant-caps: normal; letter-spacing: normal; orphans: 2; text-indent: 0px; text-transform: none; widows: 2; word-spacing: 0px; -webkit-text-stroke-width: 0px; text-decoration-thickness: initial; text-decoration-style: initial; text-decoration-color: initial; float: none; display: inline !important;&quot;&gt;«&lt;span style=&quot;border-color: var(--border-color); font-size: 16px;&quot;&gt;Application&lt;/span&gt;»&lt;/span&gt;&lt;br style=&quot;border-color: var(--border-color); color: rgb(0, 0, 0); font-family: Helvetica; font-size: 16px; font-style: normal; font-variant-ligatures: normal; font-variant-caps: normal; font-weight: 400; letter-spacing: normal; orphans: 2; text-indent: 0px; text-transform: none; widows: 2; word-spacing: 0px; -webkit-text-stroke-width: 0px; text-decoration-thickness: initial; text-decoration-style: initial; text-decoration-color: initial;&quot;&gt;&lt;b style=&quot;font-size: 16px;&quot;&gt;ScanHub UI&lt;/b&gt;" style="text;whiteSpace=wrap;html=1;labelBackgroundColor=none;align=center;rounded=0;fontSize=16;" parent="1" vertex="1">
          <mxGeometry x="-120" y="-220" width="760" height="50" as="geometry" />
        </mxCell>
        <mxCell id="W92m8VuoNIIunjYURMXv-45" value="" style="endArrow=none;html=1;rounded=0;exitX=0;exitY=0.25;exitDx=0;exitDy=0;entryX=0.5;entryY=1;entryDx=0;entryDy=0;edgeStyle=orthogonalEdgeStyle;startArrow=classic;startFill=1;endFill=0;fontSize=16;" parent="1" source="L5MEKKil3N5dobx29khn-10" target="W92m8VuoNIIunjYURMXv-44" edge="1">
          <mxGeometry width="50" height="50" relative="1" as="geometry">
            <mxPoint x="359" y="220" as="sourcePoint" />
            <mxPoint x="425" y="-100" as="targetPoint" />
            <Array as="points">
              <mxPoint x="600" y="157" />
              <mxPoint x="600" y="-20" />
              <mxPoint x="550" y="-20" />
            </Array>
          </mxGeometry>
        </mxCell>
        <mxCell id="W92m8VuoNIIunjYURMXv-39" value="" style="endArrow=classic;html=1;rounded=0;entryX=0;entryY=0.25;entryDx=0;entryDy=0;edgeStyle=orthogonalEdgeStyle;startArrow=none;startFill=0;endFill=1;exitX=0.5;exitY=1;exitDx=0;exitDy=0;fontSize=16;" parent="1" source="L5MEKKil3N5dobx29khn-52" target="L5MEKKil3N5dobx29khn-50" edge="1">
          <mxGeometry width="50" height="50" relative="1" as="geometry">
            <mxPoint x="165" y="-100" as="sourcePoint" />
            <mxPoint x="215" y="190" as="targetPoint" />
            <Array as="points">
              <mxPoint x="260" y="-20" />
              <mxPoint x="160" y="-20" />
              <mxPoint x="160" y="175" />
            </Array>
          </mxGeometry>
        </mxCell>
        <mxCell id="W92m8VuoNIIunjYURMXv-43" value="" style="endArrow=classic;html=1;rounded=0;edgeStyle=orthogonalEdgeStyle;startArrow=none;startFill=0;endFill=1;exitX=0.5;exitY=1;exitDx=0;exitDy=0;entryX=0.5;entryY=0;entryDx=0;entryDy=0;fontSize=16;" parent="1" source="W92m8VuoNIIunjYURMXv-42" target="L5MEKKil3N5dobx29khn-33" edge="1">
          <mxGeometry width="50" height="50" relative="1" as="geometry">
            <mxPoint x="105" y="-100" as="sourcePoint" />
            <mxPoint x="101" y="190" as="targetPoint" />
            <Array as="points">
              <mxPoint x="-30" y="-20" />
              <mxPoint x="-130" y="-20" />
            </Array>
          </mxGeometry>
        </mxCell>
        <mxCell id="L5MEKKil3N5dobx29khn-10" value="Workflow Engine" style="rounded=0;whiteSpace=wrap;html=1;fontSize=16;" parent="1" vertex="1">
          <mxGeometry x="653.6" y="141.25" width="139.2" height="62.5" as="geometry" />
        </mxCell>
        <mxCell id="L5MEKKil3N5dobx29khn-12" value="Workflow Orchestration" style="rounded=0;whiteSpace=wrap;html=1;rotation=-90;fontSize=16;" parent="1" vertex="1">
          <mxGeometry x="740" y="142.5" width="260" height="60" as="geometry" />
        </mxCell>
        <mxCell id="L5MEKKil3N5dobx29khn-43" value="" style="endArrow=classic;startArrow=classic;html=1;rounded=0;entryX=1;entryY=0.5;entryDx=0;entryDy=0;exitX=0.5;exitY=0;exitDx=0;exitDy=0;exitPerimeter=0;fontSize=16;" parent="1" source="L5MEKKil3N5dobx29khn-12" target="L5MEKKil3N5dobx29khn-10" edge="1">
          <mxGeometry width="50" height="50" relative="1" as="geometry">
            <mxPoint x="496.99999999999994" y="240" as="sourcePoint" />
            <mxPoint x="555" y="190" as="targetPoint" />
          </mxGeometry>
        </mxCell>
        <mxCell id="L5MEKKil3N5dobx29khn-20" value="Device Manager" style="rounded=0;whiteSpace=wrap;html=1;fontSize=16;" parent="1" vertex="1">
          <mxGeometry x="-350" y="160" width="120" height="60" as="geometry" />
        </mxCell>
        <mxCell id="L5MEKKil3N5dobx29khn-33" value="Acquisition Control" style="rounded=0;whiteSpace=wrap;html=1;points=[[0,0,0,0,0],[0,0.25,0,0,0],[0,0.5,0,0,0],[0,0.75,0,0,0],[0,1,0,0,0],[0.2,1,0,0,0],[0.25,0,0,0,0],[0.4,1,0,0,0],[0.5,0,0,0,0],[0.6,1,0,0,0],[0.75,0,0,0,0],[0.8,1,0,0,0],[1,0,0,0,0],[1,0.25,0,0,0],[1,0.5,0,0,0],[1,0.75,0,0,0],[1,1,0,0,0]];fontSize=16;" parent="1" vertex="1">
          <mxGeometry x="-190" y="160" width="120" height="60" as="geometry" />
        </mxCell>
        <mxCell id="W92m8VuoNIIunjYURMXv-41" value="" style="endArrow=none;html=1;rounded=0;entryX=0;entryY=0.5;entryDx=0;entryDy=0;edgeStyle=orthogonalEdgeStyle;startArrow=classic;startFill=1;endFill=0;exitX=1;exitY=0.5;exitDx=0;exitDy=0;jumpStyle=arc;jumpSize=10;fontSize=16;" parent="1" source="L5MEKKil3N5dobx29khn-20" target="L5MEKKil3N5dobx29khn-33" edge="1">
          <mxGeometry width="50" height="50" relative="1" as="geometry">
            <mxPoint x="-290" y="660" as="sourcePoint" />
            <mxPoint x="-260" y="230" as="targetPoint" />
            <Array as="points">
              <mxPoint x="-210" y="190" />
            </Array>
          </mxGeometry>
        </mxCell>
        <mxCell id="L5MEKKil3N5dobx29khn-38" value="" style="endArrow=classic;html=1;rounded=0;exitX=0;exitY=0.5;exitDx=0;exitDy=0;entryX=1;entryY=0.25;entryDx=0;entryDy=0;edgeStyle=orthogonalEdgeStyle;startArrow=none;startFill=0;endFill=1;fontSize=16;" parent="1" source="L5MEKKil3N5dobx29khn-20" target="L5MEKKil3N5dobx29khn-31" edge="1">
          <mxGeometry width="50" height="50" relative="1" as="geometry">
            <mxPoint x="-220" y="540" as="sourcePoint" />
            <mxPoint x="-285" y="800" as="targetPoint" />
            <Array as="points">
              <mxPoint x="-430" y="190" />
              <mxPoint x="-430" y="145" />
            </Array>
          </mxGeometry>
        </mxCell>
        <mxCell id="W92m8VuoNIIunjYURMXv-1" value="" style="endArrow=classic;html=1;rounded=0;exitX=0.2;exitY=1;exitDx=0;exitDy=0;edgeStyle=orthogonalEdgeStyle;entryX=1;entryY=0.75;entryDx=0;entryDy=0;startArrow=none;startFill=0;endFill=1;exitPerimeter=0;fontSize=16;" parent="1" source="L5MEKKil3N5dobx29khn-33" target="L5MEKKil3N5dobx29khn-31" edge="1">
          <mxGeometry width="50" height="50" relative="1" as="geometry">
            <mxPoint x="-140" y="220.03999999999976" as="sourcePoint" />
            <mxPoint x="-520" y="175.03999999999976" as="targetPoint" />
            <Array as="points">
              <mxPoint x="-166" y="240" />
              <mxPoint x="-450" y="240" />
              <mxPoint x="-450" y="175" />
            </Array>
          </mxGeometry>
        </mxCell>
        <mxCell id="W92m8VuoNIIunjYURMXv-40" value="" style="endArrow=none;html=1;rounded=0;entryX=0.8;entryY=1;entryDx=0;entryDy=0;edgeStyle=orthogonalEdgeStyle;startArrow=classic;startFill=1;endFill=0;jumpStyle=arc;jumpSize=10;exitX=0;exitY=0.75;exitDx=0;exitDy=0;entryPerimeter=0;fontSize=16;" parent="1" source="L5MEKKil3N5dobx29khn-10" target="L5MEKKil3N5dobx29khn-33" edge="1">
          <mxGeometry width="50" height="50" relative="1" as="geometry">
            <mxPoint x="620" y="200" as="sourcePoint" />
            <mxPoint x="-60" y="265" as="targetPoint" />
            <Array as="points">
              <mxPoint x="600" y="188" />
              <mxPoint x="600" y="310" />
              <mxPoint x="-94" y="310" />
            </Array>
          </mxGeometry>
        </mxCell>
        <mxCell id="L5MEKKil3N5dobx29khn-46" value="&lt;span style=&quot;color: rgb(0, 0, 0); font-family: Helvetica; font-size: 16px; font-style: normal; font-variant-ligatures: normal; font-variant-caps: normal; font-weight: 400; letter-spacing: normal; orphans: 2; text-indent: 0px; text-transform: none; widows: 2; word-spacing: 0px; -webkit-text-stroke-width: 0px; text-decoration-thickness: initial; text-decoration-style: initial; text-decoration-color: initial; float: none; display: inline !important;&quot;&gt;«Layer»&lt;/span&gt;&lt;br style=&quot;border-color: var(--border-color); color: rgb(0, 0, 0); font-family: Helvetica; font-size: 16px; font-style: normal; font-variant-ligatures: normal; font-variant-caps: normal; font-weight: 400; letter-spacing: normal; orphans: 2; text-indent: 0px; text-transform: none; widows: 2; word-spacing: 0px; -webkit-text-stroke-width: 0px; text-decoration-thickness: initial; text-decoration-style: initial; text-decoration-color: initial;&quot;&gt;&lt;b style=&quot;font-size: 16px;&quot;&gt;Study Management&lt;/b&gt;" style="text;whiteSpace=wrap;html=1;labelBackgroundColor=none;align=center;rounded=0;fontSize=16;" parent="1" vertex="1">
          <mxGeometry x="-20" y="70" width="570" height="50" as="geometry" />
        </mxCell>
        <mxCell id="L5MEKKil3N5dobx29khn-25" value="" style="rounded=0;whiteSpace=wrap;html=1;fillColor=#fad7ac;strokeColor=#b46504;fontSize=16;" parent="1" vertex="1">
          <mxGeometry x="317.3076923076923" y="130" width="211.53846153846155" height="130" as="geometry" />
        </mxCell>
        <mxCell id="L5MEKKil3N5dobx29khn-27" value="Sequence Manager" style="rounded=0;whiteSpace=wrap;html=1;fontSize=16;" parent="1" vertex="1">
          <mxGeometry x="358.5837476547843" y="180" width="128.98686679174486" height="60" as="geometry" />
        </mxCell>
        <mxCell id="L5MEKKil3N5dobx29khn-26" value="&lt;span style=&quot;color: rgb(0, 0, 0); font-family: Helvetica; font-size: 16px; font-style: normal; font-variant-ligatures: normal; font-variant-caps: normal; font-weight: 400; letter-spacing: normal; orphans: 2; text-indent: 0px; text-transform: none; widows: 2; word-spacing: 0px; -webkit-text-stroke-width: 0px; text-decoration-thickness: initial; text-decoration-style: initial; text-decoration-color: initial; float: none; display: inline !important;&quot;&gt;«Layer»&lt;/span&gt;&lt;br style=&quot;border-color: var(--border-color); color: rgb(0, 0, 0); font-family: Helvetica; font-size: 16px; font-style: normal; font-variant-ligatures: normal; font-variant-caps: normal; font-weight: 400; letter-spacing: normal; orphans: 2; text-indent: 0px; text-transform: none; widows: 2; word-spacing: 0px; -webkit-text-stroke-width: 0px; text-decoration-thickness: initial; text-decoration-style: initial; text-decoration-color: initial;&quot;&gt;&lt;b style=&quot;font-size: 16px;&quot;&gt;MR&lt;/b&gt;" style="text;whiteSpace=wrap;html=1;labelBackgroundColor=none;align=center;rounded=0;fontSize=16;" parent="1" vertex="1">
          <mxGeometry x="317.3076923076923" y="130" width="211.53846153846155" height="50" as="geometry" />
        </mxCell>
        <mxCell id="L5MEKKil3N5dobx29khn-9" value="Patient Manager" style="rounded=0;whiteSpace=wrap;html=1;fontSize=16;" parent="1" vertex="1">
          <mxGeometry x="-0.002188868042523495" y="160" width="128.98686679174486" height="60" as="geometry" />
        </mxCell>
        <mxCell id="W92m8VuoNIIunjYURMXv-23" value="" style="endArrow=classic;html=1;rounded=0;edgeStyle=orthogonalEdgeStyle;startArrow=none;startFill=0;endFill=1;exitX=0.25;exitY=1;exitDx=0;exitDy=0;entryX=0.5;entryY=0;entryDx=0;entryDy=0;fontSize=16;" parent="1" source="L5MEKKil3N5dobx29khn-55" target="L5MEKKil3N5dobx29khn-9" edge="1">
          <mxGeometry width="50" height="50" relative="1" as="geometry">
            <mxPoint x="431" y="140" as="sourcePoint" />
            <mxPoint x="-30" y="-30" as="targetPoint" />
            <Array as="points">
              <mxPoint x="85" y="-20" />
              <mxPoint x="64" y="-20" />
            </Array>
          </mxGeometry>
        </mxCell>
        <mxCell id="W92m8VuoNIIunjYURMXv-37" value="" style="endArrow=classic;html=1;rounded=0;entryX=0;entryY=0.75;entryDx=0;entryDy=0;edgeStyle=orthogonalEdgeStyle;startArrow=none;startFill=0;endFill=1;exitX=0.75;exitY=1;exitDx=0;exitDy=0;fontSize=16;" parent="1" source="L5MEKKil3N5dobx29khn-55" target="L5MEKKil3N5dobx29khn-50" edge="1">
          <mxGeometry width="50" height="50" relative="1" as="geometry">
            <mxPoint x="145" y="-110" as="sourcePoint" />
            <mxPoint x="110" y="250" as="targetPoint" />
            <Array as="points">
              <mxPoint x="145" y="205" />
            </Array>
          </mxGeometry>
        </mxCell>
        <mxCell id="W92m8VuoNIIunjYURMXv-21" value="" style="endArrow=none;html=1;rounded=0;exitX=0;exitY=0.5;exitDx=0;exitDy=0;entryX=0.5;entryY=1;entryDx=0;entryDy=0;edgeStyle=orthogonalEdgeStyle;startArrow=classic;startFill=1;endFill=0;fontSize=16;" parent="1" source="L5MEKKil3N5dobx29khn-27" target="L5MEKKil3N5dobx29khn-53" edge="1">
          <mxGeometry width="50" height="50" relative="1" as="geometry">
            <mxPoint x="-270" y="250" as="sourcePoint" />
            <mxPoint x="-570" y="155" as="targetPoint" />
            <Array as="points">
              <mxPoint x="330" y="210" />
              <mxPoint x="330" y="-20" />
              <mxPoint x="405" y="-20" />
            </Array>
          </mxGeometry>
        </mxCell>
        <mxCell id="W92m8VuoNIIunjYURMXv-28" value="" style="endArrow=none;html=1;rounded=0;entryX=0.75;entryY=1;entryDx=0;entryDy=0;edgeStyle=orthogonalEdgeStyle;startArrow=classic;startFill=1;endFill=0;exitX=0;exitY=0.5;exitDx=0;exitDy=0;exitPerimeter=0;fontSize=16;" parent="1" source="L5MEKKil3N5dobx29khn-63" target="L5MEKKil3N5dobx29khn-27" edge="1">
          <mxGeometry width="50" height="50" relative="1" as="geometry">
            <mxPoint x="680" y="610" as="sourcePoint" />
            <mxPoint x="415" y="-100" as="targetPoint" />
            <Array as="points">
              <mxPoint x="455" y="575" />
            </Array>
          </mxGeometry>
        </mxCell>
        <mxCell id="W92m8VuoNIIunjYURMXv-29" value="" style="endArrow=none;html=1;rounded=0;entryX=0.5;entryY=1;entryDx=0;entryDy=0;edgeStyle=orthogonalEdgeStyle;startArrow=classic;startFill=1;endFill=0;exitX=1;exitY=0;exitDx=0;exitDy=27.5;exitPerimeter=0;fontSize=16;" parent="1" source="L5MEKKil3N5dobx29khn-59" target="L5MEKKil3N5dobx29khn-27" edge="1">
          <mxGeometry width="50" height="50" relative="1" as="geometry">
            <mxPoint x="690" y="610" as="sourcePoint" />
            <mxPoint x="433" y="250" as="targetPoint" />
            <Array as="points">
              <mxPoint x="423" y="595" />
            </Array>
          </mxGeometry>
        </mxCell>
        <mxCell id="W92m8VuoNIIunjYURMXv-33" value="" style="endArrow=none;html=1;rounded=0;entryX=0.6;entryY=1;entryDx=0;entryDy=0;edgeStyle=orthogonalEdgeStyle;startArrow=classic;startFill=1;endFill=0;exitX=0.25;exitY=1;exitDx=0;exitDy=0;jumpStyle=arc;jumpSize=10;entryPerimeter=0;fontSize=16;" parent="1" source="L5MEKKil3N5dobx29khn-27" target="L5MEKKil3N5dobx29khn-33" edge="1">
          <mxGeometry width="50" height="50" relative="1" as="geometry">
            <mxPoint x="-150" y="530" as="sourcePoint" />
            <mxPoint x="100" y="240" as="targetPoint" />
            <Array as="points">
              <mxPoint x="391" y="330" />
              <mxPoint x="-118" y="330" />
            </Array>
          </mxGeometry>
        </mxCell>
        <mxCell id="W92m8VuoNIIunjYURMXv-25" value="" style="endArrow=none;html=1;rounded=0;entryX=0.5;entryY=1;entryDx=0;entryDy=0;edgeStyle=orthogonalEdgeStyle;startArrow=classic;startFill=1;endFill=0;exitX=0;exitY=0.5;exitDx=0;exitDy=0;exitPerimeter=0;jumpStyle=arc;jumpSize=10;fontSize=16;" parent="1" source="L5MEKKil3N5dobx29khn-64" target="L5MEKKil3N5dobx29khn-9" edge="1">
          <mxGeometry width="50" height="50" relative="1" as="geometry">
            <mxPoint x="155" y="-100" as="sourcePoint" />
            <mxPoint x="260" y="180" as="targetPoint" />
            <Array as="points">
              <mxPoint x="65" y="542" />
            </Array>
          </mxGeometry>
        </mxCell>
        <mxCell id="W92m8VuoNIIunjYURMXv-26" value="" style="endArrow=none;html=1;rounded=0;entryX=0.5;entryY=1;entryDx=0;entryDy=0;edgeStyle=orthogonalEdgeStyle;startArrow=classic;startFill=1;endFill=0;exitX=1;exitY=0.5;exitDx=0;exitDy=0;exitPerimeter=0;jumpStyle=arc;jumpSize=10;fontSize=16;" parent="1" source="L5MEKKil3N5dobx29khn-65" target="L5MEKKil3N5dobx29khn-50" edge="1">
          <mxGeometry width="50" height="50" relative="1" as="geometry">
            <mxPoint x="200" y="568" as="sourcePoint" />
            <mxPoint x="260" y="240" as="targetPoint" />
            <Array as="points">
              <mxPoint x="-120" y="510" />
              <mxPoint x="-120" y="370" />
              <mxPoint x="235" y="370" />
              <mxPoint x="235" y="220" />
            </Array>
          </mxGeometry>
        </mxCell>
        <mxCell id="W92m8VuoNIIunjYURMXv-48" value="" style="endArrow=classic;html=1;rounded=0;exitX=0.4;exitY=1;exitDx=0;exitDy=0;edgeStyle=orthogonalEdgeStyle;entryX=1;entryY=0.75;entryDx=0;entryDy=0;startArrow=none;startFill=0;endFill=1;exitPerimeter=0;fontSize=16;" parent="1" source="L5MEKKil3N5dobx29khn-33" target="L5MEKKil3N5dobx29khn-36" edge="1">
          <mxGeometry width="50" height="50" relative="1" as="geometry">
            <mxPoint x="-156" y="230" as="sourcePoint" />
            <mxPoint x="-530" y="185" as="targetPoint" />
            <Array as="points">
              <mxPoint x="-142" y="330" />
              <mxPoint x="-430" y="330" />
              <mxPoint x="-430" y="485" />
            </Array>
          </mxGeometry>
        </mxCell>
        <mxCell id="W92m8VuoNIIunjYURMXv-27" value="" style="endArrow=none;html=1;rounded=0;entryX=0.5;entryY=1;entryDx=0;entryDy=0;edgeStyle=orthogonalEdgeStyle;startArrow=classic;startFill=1;endFill=0;exitX=0;exitY=0.5;exitDx=0;exitDy=0;exitPerimeter=0;jumpStyle=arc;jumpSize=10;fontSize=16;" parent="1" source="L5MEKKil3N5dobx29khn-70" target="L5MEKKil3N5dobx29khn-20" edge="1">
          <mxGeometry width="50" height="50" relative="1" as="geometry">
            <mxPoint x="-150" y="530" as="sourcePoint" />
            <mxPoint x="120" y="240" as="targetPoint" />
            <Array as="points">
              <mxPoint x="-340" y="640" />
              <mxPoint x="-340" y="370" />
              <mxPoint x="-290" y="370" />
            </Array>
          </mxGeometry>
        </mxCell>
        <mxCell id="W92m8VuoNIIunjYURMXv-49" value="" style="endArrow=none;html=1;rounded=0;entryX=0.25;entryY=1;entryDx=0;entryDy=0;edgeStyle=orthogonalEdgeStyle;startArrow=classic;startFill=1;endFill=0;exitX=1;exitY=0.25;exitDx=0;exitDy=0;jumpStyle=arc;jumpSize=10;fontSize=16;" parent="1" source="L5MEKKil3N5dobx29khn-36" target="L5MEKKil3N5dobx29khn-20" edge="1">
          <mxGeometry width="50" height="50" relative="1" as="geometry">
            <mxPoint x="-290" y="660" as="sourcePoint" />
            <mxPoint x="-280" y="230" as="targetPoint" />
            <Array as="points">
              <mxPoint x="-450" y="455" />
              <mxPoint x="-450" y="310" />
              <mxPoint x="-320" y="310" />
            </Array>
          </mxGeometry>
        </mxCell>
        <mxCell id="L5MEKKil3N5dobx29khn-52" value="Dicom Viewer" style="rounded=0;whiteSpace=wrap;html=1;flipH=1;fontSize=16;" parent="1" vertex="1">
          <mxGeometry x="200" y="-150" width="120" height="60" as="geometry" />
        </mxCell>
        <mxCell id="L5MEKKil3N5dobx29khn-53" value="MR Sequence&lt;br style=&quot;font-size: 16px;&quot;&gt;Viewer/Controller" style="rounded=0;whiteSpace=wrap;html=1;fillColor=#fad7ac;strokeColor=#b46504;flipH=1;fontSize=16;" parent="1" vertex="1">
          <mxGeometry x="345" y="-150" width="120" height="60" as="geometry" />
        </mxCell>
        <mxCell id="L5MEKKil3N5dobx29khn-55" value="EMR Viewer/Controller" style="rounded=0;whiteSpace=wrap;html=1;flipH=1;fontSize=16;" parent="1" vertex="1">
          <mxGeometry x="55" y="-150" width="120" height="60" as="geometry" />
        </mxCell>
        <mxCell id="W92m8VuoNIIunjYURMXv-42" value="Acquisition&lt;br style=&quot;font-size: 16px;&quot;&gt;Controller" style="rounded=0;whiteSpace=wrap;html=1;flipH=1;fontSize=16;" parent="1" vertex="1">
          <mxGeometry x="-90" y="-150" width="120" height="60" as="geometry" />
        </mxCell>
        <mxCell id="W92m8VuoNIIunjYURMXv-44" value="Workflow Viewer/Controller" style="rounded=0;whiteSpace=wrap;html=1;flipH=1;fontSize=16;" parent="1" vertex="1">
          <mxGeometry x="490" y="-150" width="120" height="60" as="geometry" />
        </mxCell>
        <mxCell id="L5MEKKil3N5dobx29khn-58" value="&lt;span style=&quot;color: rgb(0, 0, 0); font-family: Helvetica; font-size: 16px; font-style: normal; font-variant-ligatures: normal; font-variant-caps: normal; font-weight: 400; letter-spacing: normal; orphans: 2; text-indent: 0px; text-transform: none; widows: 2; word-spacing: 0px; -webkit-text-stroke-width: 0px; text-decoration-thickness: initial; text-decoration-style: initial; text-decoration-color: initial; float: none; display: inline !important;&quot;&gt;«Layer»&lt;/span&gt;&lt;br style=&quot;border-color: var(--border-color); color: rgb(0, 0, 0); font-family: Helvetica; font-size: 16px; font-style: normal; font-variant-ligatures: normal; font-variant-caps: normal; font-weight: 400; letter-spacing: normal; orphans: 2; text-indent: 0px; text-transform: none; widows: 2; word-spacing: 0px; -webkit-text-stroke-width: 0px; text-decoration-thickness: initial; text-decoration-style: initial; text-decoration-color: initial;&quot;&gt;&lt;b style=&quot;font-size: 16px;&quot;&gt;Persistence&lt;/b&gt;" style="text;whiteSpace=wrap;html=1;labelBackgroundColor=none;align=center;rounded=0;fontSize=16;" parent="1" vertex="1">
          <mxGeometry x="-400" y="440" width="1320" height="50" as="geometry" />
        </mxCell>
        <mxCell id="W92m8VuoNIIunjYURMXv-52" value="" style="group;rounded=0;fontSize=16;" parent="1" vertex="1" connectable="0">
          <mxGeometry x="-298.5" y="470" width="1127" height="210" as="geometry" />
        </mxCell>
        <mxCell id="L5MEKKil3N5dobx29khn-63" value="Sequence Database" style="shape=cylinder3;whiteSpace=wrap;html=1;boundedLbl=1;backgroundOutline=1;size=15;fillColor=#fad7ac;strokeColor=#b46504;rounded=0;fontSize=16;" parent="W92m8VuoNIIunjYURMXv-52" vertex="1">
          <mxGeometry x="987" y="65" width="140" height="80" as="geometry" />
        </mxCell>
        <mxCell id="W92m8VuoNIIunjYURMXv-50" value="" style="group;rounded=0;fontSize=16;" parent="W92m8VuoNIIunjYURMXv-52" vertex="1" connectable="0">
          <mxGeometry width="140" height="210" as="geometry" />
        </mxCell>
        <mxCell id="L5MEKKil3N5dobx29khn-70" value="Device DB" style="shape=cylinder3;whiteSpace=wrap;html=1;boundedLbl=1;backgroundOutline=1;size=15;rounded=0;fontSize=16;" parent="W92m8VuoNIIunjYURMXv-50" vertex="1">
          <mxGeometry y="130" width="140" height="80" as="geometry" />
        </mxCell>
        <mxCell id="L5MEKKil3N5dobx29khn-66" value="Workflow DB" style="shape=cylinder3;whiteSpace=wrap;html=1;boundedLbl=1;backgroundOutline=1;size=15;rounded=0;fontSize=16;" parent="W92m8VuoNIIunjYURMXv-50" vertex="1">
          <mxGeometry y="65" width="140" height="80" as="geometry" />
        </mxCell>
        <mxCell id="L5MEKKil3N5dobx29khn-65" value="Exam DB" style="shape=cylinder3;whiteSpace=wrap;html=1;boundedLbl=1;backgroundOutline=1;size=15;rounded=0;fontSize=16;" parent="W92m8VuoNIIunjYURMXv-50" vertex="1">
          <mxGeometry width="140" height="80" as="geometry" />
        </mxCell>
        <mxCell id="W92m8VuoNIIunjYURMXv-51" value="" style="group;rounded=0;fontSize=16;" parent="W92m8VuoNIIunjYURMXv-52" vertex="1" connectable="0">
          <mxGeometry x="494" y="32.5" width="140" height="145" as="geometry" />
        </mxCell>
        <mxCell id="L5MEKKil3N5dobx29khn-59" value="Data Lake" style="shape=cylinder3;whiteSpace=wrap;html=1;boundedLbl=1;backgroundOutline=1;size=15;rounded=0;fontSize=16;" parent="W92m8VuoNIIunjYURMXv-51" vertex="1">
          <mxGeometry y="65" width="140" height="80" as="geometry" />
        </mxCell>
        <mxCell id="L5MEKKil3N5dobx29khn-64" value="Patient DB" style="shape=cylinder3;whiteSpace=wrap;html=1;boundedLbl=1;backgroundOutline=1;size=15;rounded=0;fontSize=16;" parent="W92m8VuoNIIunjYURMXv-51" vertex="1">
          <mxGeometry width="140" height="80" as="geometry" />
        </mxCell>
        <mxCell id="pqMWJ8oV7bkZ4fJcTmOH-7" value="" style="group;rounded=0;fontSize=16;" parent="1" vertex="1" connectable="0">
          <mxGeometry x="-640" y="-237.05" width="160" height="154.1" as="geometry" />
        </mxCell>
        <mxCell id="pqMWJ8oV7bkZ4fJcTmOH-4" value="" style="rounded=0;whiteSpace=wrap;html=1;fontSize=16;" parent="pqMWJ8oV7bkZ4fJcTmOH-7" vertex="1">
          <mxGeometry width="160" height="154.1" as="geometry" />
        </mxCell>
        <mxCell id="pqMWJ8oV7bkZ4fJcTmOH-2" value="" style="pointerEvents=1;shadow=0;dashed=0;html=1;strokeColor=none;labelPosition=center;verticalLabelPosition=bottom;verticalAlign=top;align=center;fillColor=#505050;shape=mxgraph.mscae.intune.user_group;rounded=0;fontSize=16;" parent="pqMWJ8oV7bkZ4fJcTmOH-7" vertex="1">
          <mxGeometry x="45" y="80" width="70" height="51.8" as="geometry" />
        </mxCell>
        <mxCell id="pqMWJ8oV7bkZ4fJcTmOH-5" value="«User»&lt;br style=&quot;border-color: var(--border-color); font-size: 16px;&quot;&gt;&lt;b style=&quot;font-size: 16px;&quot;&gt;Medical Professional&lt;/b&gt;" style="text;whiteSpace=wrap;html=1;align=center;verticalAlign=middle;container=0;rounded=0;fontSize=16;" parent="pqMWJ8oV7bkZ4fJcTmOH-7" vertex="1">
          <mxGeometry width="160" height="80" as="geometry" />
        </mxCell>
        <mxCell id="pqMWJ8oV7bkZ4fJcTmOH-8" style="edgeStyle=orthogonalEdgeStyle;rounded=0;orthogonalLoop=1;jettySize=auto;html=1;fontSize=16;" parent="1" source="pqMWJ8oV7bkZ4fJcTmOH-4" target="L5MEKKil3N5dobx29khn-1" edge="1">
          <mxGeometry relative="1" as="geometry" />
        </mxCell>
        <mxCell id="pqMWJ8oV7bkZ4fJcTmOH-9" value="" style="group;rounded=0;fontSize=16;" parent="1" vertex="1" connectable="0">
          <mxGeometry x="980" y="-227.05" width="160" height="154.1" as="geometry" />
        </mxCell>
        <mxCell id="pqMWJ8oV7bkZ4fJcTmOH-10" value="" style="rounded=0;whiteSpace=wrap;html=1;fontSize=16;" parent="pqMWJ8oV7bkZ4fJcTmOH-9" vertex="1">
          <mxGeometry width="160" height="154.1" as="geometry" />
        </mxCell>
        <mxCell id="pqMWJ8oV7bkZ4fJcTmOH-11" value="" style="pointerEvents=1;shadow=0;dashed=0;html=1;strokeColor=none;labelPosition=center;verticalLabelPosition=bottom;verticalAlign=top;align=center;fillColor=#505050;shape=mxgraph.mscae.intune.user_group;rounded=0;fontSize=16;" parent="pqMWJ8oV7bkZ4fJcTmOH-9" vertex="1">
          <mxGeometry x="45" y="70" width="70" height="51.8" as="geometry" />
        </mxCell>
        <mxCell id="pqMWJ8oV7bkZ4fJcTmOH-12" value="«User»&lt;br style=&quot;border-color: var(--border-color); font-size: 16px;&quot;&gt;&lt;b style=&quot;font-size: 16px;&quot;&gt;Developer, Researcher&lt;/b&gt;" style="text;whiteSpace=wrap;html=1;align=center;verticalAlign=middle;container=0;rounded=0;fontSize=16;" parent="pqMWJ8oV7bkZ4fJcTmOH-9" vertex="1">
          <mxGeometry width="160" height="70" as="geometry" />
        </mxCell>
        <mxCell id="pqMWJ8oV7bkZ4fJcTmOH-13" style="edgeStyle=orthogonalEdgeStyle;rounded=0;orthogonalLoop=1;jettySize=auto;html=1;entryX=0.5;entryY=0;entryDx=0;entryDy=0;fontSize=16;" parent="1" source="pqMWJ8oV7bkZ4fJcTmOH-10" target="L5MEKKil3N5dobx29khn-13" edge="1">
          <mxGeometry relative="1" as="geometry" />
        </mxCell>
        <mxCell id="MznVaPC2TWOMMa-5zOwq-1" value="" style="group;rounded=0;fontSize=16;fillColor=#f8cecc;strokeColor=#b85450;container=0;" parent="1" vertex="1" connectable="0">
          <mxGeometry x="1000" y="490" width="170" height="80" as="geometry" />
        </mxCell>
        <mxCell id="MznVaPC2TWOMMa-5zOwq-5" value="" style="endArrow=none;startArrow=classic;html=1;rounded=0;exitX=0;exitY=0.5;exitDx=0;exitDy=0;edgeStyle=orthogonalEdgeStyle;startFill=1;endFill=0;entryX=0.75;entryY=1;entryDx=0;entryDy=0;fontSize=16;" parent="1" source="MznVaPC2TWOMMa-5zOwq-3" target="L5MEKKil3N5dobx29khn-10" edge="1">
          <mxGeometry width="50" height="50" relative="1" as="geometry">
            <mxPoint x="1010" y="430" as="sourcePoint" />
            <mxPoint x="768" y="214" as="targetPoint" />
            <Array as="points">
              <mxPoint x="950" y="530" />
              <mxPoint x="950" y="430" />
              <mxPoint x="758" y="430" />
            </Array>
          </mxGeometry>
        </mxCell>
        <mxCell id="E-1cDGF12q2lx50jinpV-1" value="Neighboring System" style="rounded=0;whiteSpace=wrap;html=1;fontSize=17;fillColor=#f8cecc;strokeColor=#b85450;" parent="1" vertex="1">
          <mxGeometry x="1000" y="820" width="170" height="50" as="geometry" />
        </mxCell>
        <mxCell id="E-1cDGF12q2lx50jinpV-2" value="&lt;font style=&quot;font-size: 17px;&quot;&gt;A4IM&amp;nbsp;&lt;/font&gt;" style="rounded=0;whiteSpace=wrap;html=1;" parent="1" vertex="1">
          <mxGeometry x="1000" y="750" width="170" height="50" as="geometry" />
        </mxCell>
        <mxCell id="L5MEKKil3N5dobx29khn-61" value="" style="html=1;whiteSpace=wrap;rounded=0;fontSize=16;fillColor=#f8cecc;strokeColor=#b85450;" parent="1" vertex="1">
          <mxGeometry x="1000" y="380" width="170" height="80" as="geometry" />
        </mxCell>
        <mxCell id="L5MEKKil3N5dobx29khn-62" value="&lt;span style=&quot;color: rgb(0, 0, 0); font-family: Helvetica; font-size: 16px; font-style: normal; font-variant-ligatures: normal; font-variant-caps: normal; font-weight: 400; letter-spacing: normal; orphans: 2; text-indent: 0px; text-transform: none; widows: 2; word-spacing: 0px; -webkit-text-stroke-width: 0px; text-decoration-thickness: initial; text-decoration-style: initial; text-decoration-color: initial; float: none; display: inline !important;&quot;&gt;«Connected Storage»&lt;/span&gt;&lt;br style=&quot;border-color: var(--border-color); color: rgb(0, 0, 0); font-family: Helvetica; font-size: 16px; font-style: normal; font-variant-ligatures: normal; font-variant-caps: normal; font-weight: 400; letter-spacing: normal; orphans: 2; text-indent: 0px; text-transform: none; widows: 2; word-spacing: 0px; -webkit-text-stroke-width: 0px; text-decoration-thickness: initial; text-decoration-style: initial; text-decoration-color: initial;&quot;&gt;&lt;b style=&quot;border-color: var(--border-color); color: rgb(0, 0, 0); font-family: Helvetica; font-size: 16px; font-style: normal; font-variant-ligatures: normal; font-variant-caps: normal; letter-spacing: normal; orphans: 2; text-indent: 0px; text-transform: none; widows: 2; word-spacing: 0px; -webkit-text-stroke-width: 0px; text-decoration-thickness: initial; text-decoration-style: initial; text-decoration-color: initial;&quot;&gt;PACS&lt;/b&gt;" style="text;whiteSpace=wrap;html=1;align=center;rounded=0;fontSize=16;labelBackgroundColor=none;" parent="1" vertex="1">
          <mxGeometry x="1000" y="400" width="170" height="40" as="geometry" />
        </mxCell>
        <mxCell id="MznVaPC2TWOMMa-5zOwq-2" value="" style="html=1;whiteSpace=wrap;rounded=0;fontSize=16;fillColor=#f8cecc;strokeColor=#b85450;" parent="1" vertex="1">
          <mxGeometry x="1000" y="490" width="170" height="80" as="geometry" />
        </mxCell>
        <mxCell id="MznVaPC2TWOMMa-5zOwq-3" value="&lt;span style=&quot;color: rgb(0, 0, 0); font-family: Helvetica; font-size: 16px; font-style: normal; font-variant-ligatures: normal; font-variant-caps: normal; font-weight: 400; letter-spacing: normal; orphans: 2; text-indent: 0px; text-transform: none; widows: 2; word-spacing: 0px; -webkit-text-stroke-width: 0px; text-decoration-thickness: initial; text-decoration-style: initial; text-decoration-color: initial; float: none; display: inline !important;&quot;&gt;«Connected Storage»&lt;/span&gt;&lt;br style=&quot;border-color: var(--border-color); color: rgb(0, 0, 0); font-family: Helvetica; font-size: 16px; font-style: normal; font-variant-ligatures: normal; font-variant-caps: normal; font-weight: 400; letter-spacing: normal; orphans: 2; text-indent: 0px; text-transform: none; widows: 2; word-spacing: 0px; -webkit-text-stroke-width: 0px; text-decoration-thickness: initial; text-decoration-style: initial; text-decoration-color: initial;&quot;&gt;&lt;b style=&quot;border-color: var(--border-color); color: rgb(0, 0, 0); font-family: Helvetica; font-size: 16px; font-style: normal; font-variant-ligatures: normal; font-variant-caps: normal; letter-spacing: normal; orphans: 2; text-indent: 0px; text-transform: none; widows: 2; word-spacing: 0px; -webkit-text-stroke-width: 0px; text-decoration-thickness: initial; text-decoration-style: initial; text-decoration-color: initial;&quot;&gt;Other&lt;/b&gt;" style="text;whiteSpace=wrap;html=1;align=center;rounded=0;fontSize=16;labelBackgroundColor=none;" parent="1" vertex="1">
          <mxGeometry x="1000" y="510" width="170" height="40" as="geometry" />
        </mxCell>
        <mxCell id="E-1cDGF12q2lx50jinpV-4" value="&lt;span style=&quot;color: rgb(0, 0, 0); font-family: Helvetica; font-size: 17px; font-style: normal; font-variant-ligatures: normal; font-variant-caps: normal; font-weight: 400; letter-spacing: normal; orphans: 2; text-align: center; text-indent: 0px; text-transform: none; widows: 2; word-spacing: 0px; -webkit-text-stroke-width: 0px; text-decoration-thickness: initial; text-decoration-style: initial; text-decoration-color: initial; float: none; display: inline !important;&quot;&gt;Legend&lt;/span&gt;" style="text;whiteSpace=wrap;html=1;fontSize=17;labelBackgroundColor=none;" parent="1" vertex="1">
          <mxGeometry x="990" y="710" width="90" height="40" as="geometry" />
        </mxCell>
      </root>
    </mxGraphModel>
  </diagram>
  <diagram id="OCxigduz2dhG15vIBCtA" name="System View Annotated">
    <mxGraphModel dx="1949" dy="2024" grid="1" gridSize="10" guides="1" tooltips="1" connect="1" arrows="1" fold="1" page="1" pageScale="1" pageWidth="827" pageHeight="1169" math="0" shadow="0">
      <root>
        <mxCell id="0" />
        <mxCell id="1" parent="0" />
        <mxCell id="j5KQa3_2x4oAnSILvBNY-1" value="" style="rounded=0;whiteSpace=wrap;html=1;fillColor=#b1ddf0;strokeColor=#10739e;fontSize=16;" vertex="1" parent="1">
          <mxGeometry x="-400" y="440" width="1320" height="270" as="geometry" />
        </mxCell>
        <mxCell id="j5KQa3_2x4oAnSILvBNY-2" value="" style="rounded=0;whiteSpace=wrap;html=1;fillColor=#f5f5f5;strokeColor=#666666;fontColor=#333333;fontSize=16;" vertex="1" parent="1">
          <mxGeometry x="-400" width="1320" height="400" as="geometry" />
        </mxCell>
        <mxCell id="j5KQa3_2x4oAnSILvBNY-3" value="Workflows" style="rounded=0;whiteSpace=wrap;html=1;fontSize=16;" vertex="1" parent="1">
          <mxGeometry x="1000" y="30" width="120" height="80" as="geometry" />
        </mxCell>
        <mxCell id="j5KQa3_2x4oAnSILvBNY-4" value="Workflows" style="rounded=0;whiteSpace=wrap;html=1;fontSize=16;" vertex="1" parent="1">
          <mxGeometry x="1000" y="132.5" width="120" height="80" as="geometry" />
        </mxCell>
        <mxCell id="j5KQa3_2x4oAnSILvBNY-5" value="Workflows" style="rounded=0;whiteSpace=wrap;html=1;fontSize=16;" vertex="1" parent="1">
          <mxGeometry x="1000" y="230" width="120" height="80" as="geometry" />
        </mxCell>
        <mxCell id="j5KQa3_2x4oAnSILvBNY-6" value="&lt;span style=&quot;color: rgb(0, 0, 0); font-family: Helvetica; font-size: 16px; font-style: normal; font-variant-ligatures: normal; font-variant-caps: normal; font-weight: 400; letter-spacing: normal; orphans: 2; text-indent: 0px; text-transform: none; widows: 2; word-spacing: 0px; -webkit-text-stroke-width: 0px; text-decoration-thickness: initial; text-decoration-style: initial; text-decoration-color: initial; float: none; display: inline !important;&quot;&gt;«Domain»&lt;/span&gt;&lt;br style=&quot;border-color: var(--border-color); color: rgb(0, 0, 0); font-family: Helvetica; font-size: 16px; font-style: normal; font-variant-ligatures: normal; font-variant-caps: normal; font-weight: 400; letter-spacing: normal; orphans: 2; text-indent: 0px; text-transform: none; widows: 2; word-spacing: 0px; -webkit-text-stroke-width: 0px; text-decoration-thickness: initial; text-decoration-style: initial; text-decoration-color: initial;&quot;&gt;&lt;b style=&quot;font-size: 16px;&quot;&gt;ScanHub Core&lt;/b&gt;" style="text;whiteSpace=wrap;html=1;labelBackgroundColor=none;align=center;rounded=0;fontSize=16;" vertex="1" parent="1">
          <mxGeometry x="-400" width="1320" height="50" as="geometry" />
        </mxCell>
        <mxCell id="j5KQa3_2x4oAnSILvBNY-7" value="" style="endArrow=none;startArrow=classic;html=1;rounded=0;edgeStyle=orthogonalEdgeStyle;exitX=0;exitY=0.5;exitDx=0;exitDy=0;endFill=0;entryX=0.25;entryY=1;entryDx=0;entryDy=0;fontSize=16;" edge="1" parent="1" source="j5KQa3_2x4oAnSILvBNY-5" target="j5KQa3_2x4oAnSILvBNY-44">
          <mxGeometry width="50" height="50" relative="1" as="geometry">
            <mxPoint x="980" y="310" as="sourcePoint" />
            <mxPoint x="940" y="260" as="targetPoint" />
            <Array as="points">
              <mxPoint x="960" y="270" />
              <mxPoint x="960" y="237" />
            </Array>
          </mxGeometry>
        </mxCell>
        <mxCell id="j5KQa3_2x4oAnSILvBNY-8" value="" style="rounded=0;whiteSpace=wrap;html=1;fillColor=#b1ddf0;strokeColor=#10739e;fontSize=16;" vertex="1" parent="1">
          <mxGeometry x="-400" y="740" width="1320" height="130" as="geometry" />
        </mxCell>
        <mxCell id="j5KQa3_2x4oAnSILvBNY-9" value="&lt;span style=&quot;color: rgb(0, 0, 0); font-family: Helvetica; font-size: 16px; font-style: normal; font-variant-ligatures: normal; font-variant-caps: normal; font-weight: 400; letter-spacing: normal; orphans: 2; text-indent: 0px; text-transform: none; widows: 2; word-spacing: 0px; -webkit-text-stroke-width: 0px; text-decoration-thickness: initial; text-decoration-style: initial; text-decoration-color: initial; float: none; display: inline !important;&quot;&gt;«Layer»&lt;/span&gt;&lt;br style=&quot;border-color: var(--border-color); color: rgb(0, 0, 0); font-family: Helvetica; font-size: 16px; font-style: normal; font-variant-ligatures: normal; font-variant-caps: normal; font-weight: 400; letter-spacing: normal; orphans: 2; text-indent: 0px; text-transform: none; widows: 2; word-spacing: 0px; -webkit-text-stroke-width: 0px; text-decoration-thickness: initial; text-decoration-style: initial; text-decoration-color: initial;&quot;&gt;&lt;b style=&quot;font-size: 16px;&quot;&gt;Governance&lt;/b&gt;" style="text;whiteSpace=wrap;html=1;labelBackgroundColor=none;align=center;rounded=0;fontSize=16;" vertex="1" parent="1">
          <mxGeometry x="-400" y="740" width="1320" height="50" as="geometry" />
        </mxCell>
        <mxCell id="j5KQa3_2x4oAnSILvBNY-10" value="AuthZ/AuthN" style="rounded=0;whiteSpace=wrap;html=1;fontSize=16;" vertex="1" parent="1">
          <mxGeometry x="200" y="790" width="120" height="60" as="geometry" />
        </mxCell>
        <mxCell id="j5KQa3_2x4oAnSILvBNY-11" value="" style="group;rounded=0;fontSize=16;" vertex="1" connectable="0" parent="1">
          <mxGeometry x="-720" y="360" width="240" height="200" as="geometry" />
        </mxCell>
        <mxCell id="j5KQa3_2x4oAnSILvBNY-12" value="" style="rounded=0;whiteSpace=wrap;html=1;fontSize=16;" vertex="1" parent="j5KQa3_2x4oAnSILvBNY-11">
          <mxGeometry width="240" height="200" as="geometry" />
        </mxCell>
        <mxCell id="j5KQa3_2x4oAnSILvBNY-13" value="&lt;span style=&quot;color: rgb(0, 0, 0); font-family: Helvetica; font-size: 16px; font-style: normal; font-variant-ligatures: normal; font-variant-caps: normal; letter-spacing: normal; orphans: 2; text-indent: 0px; text-transform: none; widows: 2; word-spacing: 0px; -webkit-text-stroke-width: 0px; text-decoration-thickness: initial; text-decoration-style: initial; text-decoration-color: initial; float: none; display: inline !important;&quot;&gt;«&lt;span style=&quot;border-color: var(--border-color); font-size: 16px;&quot;&gt;Conected Device&lt;/span&gt;&lt;b style=&quot;font-weight: 400; border-color: var(--border-color); font-size: 16px;&quot;&gt;&amp;nbsp;&lt;/b&gt;»&lt;/span&gt;&lt;br style=&quot;border-color: var(--border-color); color: rgb(0, 0, 0); font-family: Helvetica; font-size: 16px; font-style: normal; font-variant-ligatures: normal; font-variant-caps: normal; font-weight: 400; letter-spacing: normal; orphans: 2; text-indent: 0px; text-transform: none; widows: 2; word-spacing: 0px; -webkit-text-stroke-width: 0px; text-decoration-thickness: initial; text-decoration-style: initial; text-decoration-color: initial;&quot;&gt;&lt;b style=&quot;font-size: 16px;&quot;&gt;Other Modality&lt;/b&gt;" style="text;whiteSpace=wrap;html=1;labelBackgroundColor=none;align=center;rounded=0;fontSize=16;" vertex="1" parent="j5KQa3_2x4oAnSILvBNY-11">
          <mxGeometry width="240" height="50" as="geometry" />
        </mxCell>
        <mxCell id="j5KQa3_2x4oAnSILvBNY-14" value="ScanHub Connector" style="rounded=0;whiteSpace=wrap;html=1;fontSize=16;" vertex="1" parent="j5KQa3_2x4oAnSILvBNY-11">
          <mxGeometry x="57.391304347826086" y="80" width="125.21739130434783" height="60" as="geometry" />
        </mxCell>
        <mxCell id="j5KQa3_2x4oAnSILvBNY-15" value="" style="group;rounded=0;fontSize=16;" vertex="1" connectable="0" parent="1">
          <mxGeometry x="-720" width="240" height="320" as="geometry" />
        </mxCell>
        <mxCell id="j5KQa3_2x4oAnSILvBNY-16" value="" style="rounded=0;whiteSpace=wrap;html=1;container=0;fontSize=16;" vertex="1" parent="j5KQa3_2x4oAnSILvBNY-15">
          <mxGeometry width="240" height="320" as="geometry" />
        </mxCell>
        <mxCell id="j5KQa3_2x4oAnSILvBNY-17" value="" style="rounded=0;whiteSpace=wrap;html=1;container=0;fillColor=#bac8d3;strokeColor=#23445d;fontSize=16;" vertex="1" parent="j5KQa3_2x4oAnSILvBNY-15">
          <mxGeometry x="30" y="60" width="180" height="235" as="geometry" />
        </mxCell>
        <mxCell id="j5KQa3_2x4oAnSILvBNY-18" value="Sequence Provider" style="rounded=0;whiteSpace=wrap;html=1;container=0;fontSize=16;" vertex="1" parent="j5KQa3_2x4oAnSILvBNY-15">
          <mxGeometry x="60" y="210" width="120" height="60" as="geometry" />
        </mxCell>
        <mxCell id="j5KQa3_2x4oAnSILvBNY-19" value="&lt;span style=&quot;color: rgb(0, 0, 0); font-family: Helvetica; font-size: 16px; font-style: normal; font-variant-ligatures: normal; font-variant-caps: normal; letter-spacing: normal; orphans: 2; text-indent: 0px; text-transform: none; widows: 2; word-spacing: 0px; -webkit-text-stroke-width: 0px; text-decoration-thickness: initial; text-decoration-style: initial; text-decoration-color: initial; float: none; display: inline !important;&quot;&gt;«&lt;span style=&quot;border-color: var(--border-color); font-size: 16px;&quot;&gt;Conected Device&lt;/span&gt;&lt;b style=&quot;font-weight: 400; border-color: var(--border-color); font-size: 16px;&quot;&gt;&amp;nbsp;&lt;/b&gt;»&lt;/span&gt;&lt;br style=&quot;border-color: var(--border-color); color: rgb(0, 0, 0); font-family: Helvetica; font-size: 16px; font-style: normal; font-variant-ligatures: normal; font-variant-caps: normal; font-weight: 400; letter-spacing: normal; orphans: 2; text-indent: 0px; text-transform: none; widows: 2; word-spacing: 0px; -webkit-text-stroke-width: 0px; text-decoration-thickness: initial; text-decoration-style: initial; text-decoration-color: initial;&quot;&gt;&lt;b style=&quot;font-size: 16px;&quot;&gt;MR&lt;/b&gt;" style="text;whiteSpace=wrap;html=1;labelBackgroundColor=none;align=center;container=0;rounded=0;fontSize=16;" vertex="1" parent="j5KQa3_2x4oAnSILvBNY-15">
          <mxGeometry width="240" height="50" as="geometry" />
        </mxCell>
        <mxCell id="j5KQa3_2x4oAnSILvBNY-20" value="ScanHub Connector" style="rounded=0;whiteSpace=wrap;html=1;container=0;fontSize=16;" vertex="1" parent="j5KQa3_2x4oAnSILvBNY-15">
          <mxGeometry x="60" y="130" width="120" height="60" as="geometry" />
        </mxCell>
        <mxCell id="j5KQa3_2x4oAnSILvBNY-21" value="«MR»&lt;br style=&quot;border-color: var(--border-color); font-size: 16px;&quot;&gt;&lt;b style=&quot;font-size: 16px;&quot;&gt;Console Application&lt;/b&gt;" style="text;whiteSpace=wrap;html=1;align=center;verticalAlign=middle;container=0;rounded=0;fontSize=16;" vertex="1" parent="j5KQa3_2x4oAnSILvBNY-15">
          <mxGeometry x="30" y="60" width="180" height="40" as="geometry" />
        </mxCell>
        <mxCell id="j5KQa3_2x4oAnSILvBNY-22" value="" style="endArrow=none;startArrow=classic;html=1;rounded=0;exitX=0;exitY=0.5;exitDx=0;exitDy=0;edgeStyle=orthogonalEdgeStyle;startFill=1;endFill=0;entryX=0.75;entryY=1;entryDx=0;entryDy=0;fontSize=16;" edge="1" parent="1" source="j5KQa3_2x4oAnSILvBNY-3" target="j5KQa3_2x4oAnSILvBNY-44">
          <mxGeometry width="50" height="50" relative="1" as="geometry">
            <mxPoint x="720" y="380" as="sourcePoint" />
            <mxPoint x="940" y="150" as="targetPoint" />
            <Array as="points">
              <mxPoint x="960" y="70" />
              <mxPoint x="960" y="107" />
            </Array>
          </mxGeometry>
        </mxCell>
        <mxCell id="j5KQa3_2x4oAnSILvBNY-23" value="" style="rounded=0;whiteSpace=wrap;html=1;fillColor=#b1ddf0;strokeColor=#10739e;fontSize=16;" vertex="1" parent="1">
          <mxGeometry x="580" y="70" width="290" height="210" as="geometry" />
        </mxCell>
        <mxCell id="j5KQa3_2x4oAnSILvBNY-24" value="" style="group;rounded=0;fontSize=16;" vertex="1" connectable="0" parent="1">
          <mxGeometry x="1000" y="380" width="120" height="80" as="geometry" />
        </mxCell>
        <mxCell id="j5KQa3_2x4oAnSILvBNY-25" value="" style="html=1;whiteSpace=wrap;rounded=0;fontSize=16;" vertex="1" parent="j5KQa3_2x4oAnSILvBNY-24">
          <mxGeometry width="120" height="80" as="geometry" />
        </mxCell>
        <mxCell id="j5KQa3_2x4oAnSILvBNY-26" value="&lt;span style=&quot;color: rgb(0, 0, 0); font-family: Helvetica; font-size: 16px; font-style: normal; font-variant-ligatures: normal; font-variant-caps: normal; font-weight: 400; letter-spacing: normal; orphans: 2; text-indent: 0px; text-transform: none; widows: 2; word-spacing: 0px; -webkit-text-stroke-width: 0px; background-color: rgb(251, 251, 251); text-decoration-thickness: initial; text-decoration-style: initial; text-decoration-color: initial; float: none; display: inline !important;&quot;&gt;«System»&lt;/span&gt;&lt;br style=&quot;border-color: var(--border-color); color: rgb(0, 0, 0); font-family: Helvetica; font-size: 16px; font-style: normal; font-variant-ligatures: normal; font-variant-caps: normal; font-weight: 400; letter-spacing: normal; orphans: 2; text-indent: 0px; text-transform: none; widows: 2; word-spacing: 0px; -webkit-text-stroke-width: 0px; background-color: rgb(251, 251, 251); text-decoration-thickness: initial; text-decoration-style: initial; text-decoration-color: initial;&quot;&gt;&lt;b style=&quot;border-color: var(--border-color); color: rgb(0, 0, 0); font-family: Helvetica; font-size: 16px; font-style: normal; font-variant-ligatures: normal; font-variant-caps: normal; letter-spacing: normal; orphans: 2; text-indent: 0px; text-transform: none; widows: 2; word-spacing: 0px; -webkit-text-stroke-width: 0px; background-color: rgb(251, 251, 251); text-decoration-thickness: initial; text-decoration-style: initial; text-decoration-color: initial;&quot;&gt;PACS&lt;/b&gt;" style="text;whiteSpace=wrap;html=1;align=center;rounded=0;fontSize=16;" vertex="1" parent="j5KQa3_2x4oAnSILvBNY-24">
          <mxGeometry y="20" width="120" height="40" as="geometry" />
        </mxCell>
        <mxCell id="j5KQa3_2x4oAnSILvBNY-27" value="" style="endArrow=none;startArrow=classic;html=1;rounded=0;exitX=0;exitY=0.5;exitDx=0;exitDy=0;edgeStyle=orthogonalEdgeStyle;startFill=1;endFill=0;entryX=0.75;entryY=1;entryDx=0;entryDy=0;fontSize=16;" edge="1" parent="1" source="j5KQa3_2x4oAnSILvBNY-26" target="j5KQa3_2x4oAnSILvBNY-43">
          <mxGeometry width="50" height="50" relative="1" as="geometry">
            <mxPoint x="1010" y="199" as="sourcePoint" />
            <mxPoint x="720" y="220" as="targetPoint" />
            <Array as="points">
              <mxPoint x="758" y="420" />
            </Array>
          </mxGeometry>
        </mxCell>
        <mxCell id="j5KQa3_2x4oAnSILvBNY-28" value="" style="endArrow=none;startArrow=classic;html=1;rounded=0;exitX=1;exitY=0;exitDx=0;exitDy=52.5;edgeStyle=orthogonalEdgeStyle;startFill=1;endFill=0;entryX=0.5;entryY=1;entryDx=0;entryDy=0;exitPerimeter=0;jumpStyle=arc;jumpSize=10;fontSize=16;" edge="1" parent="1" source="j5KQa3_2x4oAnSILvBNY-81" target="j5KQa3_2x4oAnSILvBNY-43">
          <mxGeometry width="50" height="50" relative="1" as="geometry">
            <mxPoint x="1010" y="430" as="sourcePoint" />
            <mxPoint x="730" y="229" as="targetPoint" />
            <Array as="points">
              <mxPoint x="610" y="620" />
              <mxPoint x="610" y="420" />
              <mxPoint x="723" y="420" />
            </Array>
          </mxGeometry>
        </mxCell>
        <mxCell id="j5KQa3_2x4oAnSILvBNY-29" value="" style="rounded=0;whiteSpace=wrap;html=1;fillColor=#b1ddf0;strokeColor=#10739e;fontSize=16;" vertex="1" parent="1">
          <mxGeometry x="-20" y="70" width="570" height="210" as="geometry" />
        </mxCell>
        <mxCell id="j5KQa3_2x4oAnSILvBNY-30" value="Exam Manager" style="rounded=0;whiteSpace=wrap;html=1;fontSize=16;" vertex="1" parent="1">
          <mxGeometry x="180.5" y="160" width="120" height="60" as="geometry" />
        </mxCell>
        <mxCell id="j5KQa3_2x4oAnSILvBNY-31" value="" style="endArrow=none;startArrow=classic;html=1;rounded=0;exitX=1;exitY=0.5;exitDx=0;exitDy=0;edgeStyle=orthogonalEdgeStyle;startFill=1;endFill=0;entryX=0.25;entryY=1;entryDx=0;entryDy=0;exitPerimeter=0;jumpStyle=arc;jumpSize=10;fontSize=16;" edge="1" parent="1" source="j5KQa3_2x4oAnSILvBNY-78" target="j5KQa3_2x4oAnSILvBNY-43">
          <mxGeometry width="50" height="50" relative="1" as="geometry">
            <mxPoint x="340" y="667" as="sourcePoint" />
            <mxPoint x="695" y="229" as="targetPoint" />
            <Array as="points">
              <mxPoint x="-40" y="575" />
              <mxPoint x="-40" y="350" />
              <mxPoint x="688" y="350" />
            </Array>
          </mxGeometry>
        </mxCell>
        <mxCell id="j5KQa3_2x4oAnSILvBNY-32" value="&lt;span style=&quot;color: rgb(0, 0, 0); font-family: Helvetica; font-size: 16px; font-style: normal; font-variant-ligatures: normal; font-variant-caps: normal; font-weight: 400; letter-spacing: normal; orphans: 2; text-indent: 0px; text-transform: none; widows: 2; word-spacing: 0px; -webkit-text-stroke-width: 0px; text-decoration-thickness: initial; text-decoration-style: initial; text-decoration-color: initial; float: none; display: inline !important;&quot;&gt;«Layer»&lt;/span&gt;&lt;br style=&quot;border-color: var(--border-color); color: rgb(0, 0, 0); font-family: Helvetica; font-size: 16px; font-style: normal; font-variant-ligatures: normal; font-variant-caps: normal; font-weight: 400; letter-spacing: normal; orphans: 2; text-indent: 0px; text-transform: none; widows: 2; word-spacing: 0px; -webkit-text-stroke-width: 0px; text-decoration-thickness: initial; text-decoration-style: initial; text-decoration-color: initial;&quot;&gt;&lt;b style=&quot;font-size: 16px;&quot;&gt;Workflow&lt;/b&gt;" style="text;whiteSpace=wrap;html=1;labelBackgroundColor=none;align=center;rounded=0;fontSize=16;" vertex="1" parent="1">
          <mxGeometry x="578.2" y="70" width="290.00000000000006" height="50" as="geometry" />
        </mxCell>
        <mxCell id="j5KQa3_2x4oAnSILvBNY-33" value="" style="endArrow=none;startArrow=classic;html=1;rounded=0;edgeStyle=orthogonalEdgeStyle;startFill=1;endFill=0;exitX=0;exitY=0.5;exitDx=0;exitDy=0;entryX=0.5;entryY=1;entryDx=0;entryDy=0;fontSize=16;" edge="1" parent="1" source="j5KQa3_2x4oAnSILvBNY-4" target="j5KQa3_2x4oAnSILvBNY-44">
          <mxGeometry width="50" height="50" relative="1" as="geometry">
            <mxPoint x="970" y="210" as="sourcePoint" />
            <mxPoint x="960" y="210" as="targetPoint" />
            <Array as="points" />
          </mxGeometry>
        </mxCell>
        <mxCell id="j5KQa3_2x4oAnSILvBNY-34" value="" style="rounded=0;whiteSpace=wrap;html=1;fillColor=#b1ddf0;strokeColor=#10739e;fontSize=16;" vertex="1" parent="1">
          <mxGeometry x="-370" y="70" width="320" height="210" as="geometry" />
        </mxCell>
        <mxCell id="j5KQa3_2x4oAnSILvBNY-35" value="&lt;span style=&quot;color: rgb(0, 0, 0); font-family: Helvetica; font-size: 16px; font-style: normal; font-variant-ligatures: normal; font-variant-caps: normal; font-weight: 400; letter-spacing: normal; orphans: 2; text-indent: 0px; text-transform: none; widows: 2; word-spacing: 0px; -webkit-text-stroke-width: 0px; text-decoration-thickness: initial; text-decoration-style: initial; text-decoration-color: initial; float: none; display: inline !important;&quot;&gt;«Layer»&lt;/span&gt;&lt;br style=&quot;border-color: var(--border-color); color: rgb(0, 0, 0); font-family: Helvetica; font-size: 16px; font-style: normal; font-variant-ligatures: normal; font-variant-caps: normal; font-weight: 400; letter-spacing: normal; orphans: 2; text-indent: 0px; text-transform: none; widows: 2; word-spacing: 0px; -webkit-text-stroke-width: 0px; text-decoration-thickness: initial; text-decoration-style: initial; text-decoration-color: initial;&quot;&gt;&lt;b style=&quot;font-size: 16px;&quot;&gt;Acquistion&lt;/b&gt;" style="text;whiteSpace=wrap;html=1;labelBackgroundColor=none;align=center;rounded=0;fontSize=16;" vertex="1" parent="1">
          <mxGeometry x="-370" y="70" width="320" height="50" as="geometry" />
        </mxCell>
        <mxCell id="j5KQa3_2x4oAnSILvBNY-36" value="" style="rounded=0;whiteSpace=wrap;html=1;fillColor=#b1ddf0;strokeColor=#10739e;fillStyle=auto;fontSize=16;" vertex="1" parent="1">
          <mxGeometry x="-160" y="-280" width="840" height="240" as="geometry" />
        </mxCell>
        <mxCell id="j5KQa3_2x4oAnSILvBNY-37" value="&lt;span style=&quot;color: rgb(0, 0, 0); font-family: Helvetica; font-size: 16px; font-style: normal; font-variant-ligatures: normal; font-variant-caps: normal; font-weight: 400; letter-spacing: normal; orphans: 2; text-indent: 0px; text-transform: none; widows: 2; word-spacing: 0px; -webkit-text-stroke-width: 0px; text-decoration-thickness: initial; text-decoration-style: initial; text-decoration-color: initial; float: none; display: inline !important;&quot;&gt;«Layer»&lt;/span&gt;&lt;br style=&quot;border-color: var(--border-color); color: rgb(0, 0, 0); font-family: Helvetica; font-size: 16px; font-style: normal; font-variant-ligatures: normal; font-variant-caps: normal; font-weight: 400; letter-spacing: normal; orphans: 2; text-indent: 0px; text-transform: none; widows: 2; word-spacing: 0px; -webkit-text-stroke-width: 0px; text-decoration-thickness: initial; text-decoration-style: initial; text-decoration-color: initial;&quot;&gt;&lt;b style=&quot;border-color: var(--border-color); color: rgb(0, 0, 0); font-family: Helvetica; font-size: 16px; font-style: normal; font-variant-ligatures: normal; font-variant-caps: normal; letter-spacing: normal; orphans: 2; text-indent: 0px; text-transform: none; widows: 2; word-spacing: 0px; -webkit-text-stroke-width: 0px; text-decoration-thickness: initial; text-decoration-style: initial; text-decoration-color: initial;&quot;&gt;Application&lt;/b&gt;" style="text;whiteSpace=wrap;html=1;labelBackgroundColor=none;align=center;rounded=0;fontSize=16;" vertex="1" parent="1">
          <mxGeometry x="-160" y="-280" width="840" height="50" as="geometry" />
        </mxCell>
        <mxCell id="j5KQa3_2x4oAnSILvBNY-38" value="" style="rounded=0;whiteSpace=wrap;html=1;fillColor=#f9f7ed;strokeColor=#36393d;fontSize=16;" vertex="1" parent="1">
          <mxGeometry x="-120" y="-220" width="760" height="160" as="geometry" />
        </mxCell>
        <mxCell id="j5KQa3_2x4oAnSILvBNY-39" value="&lt;span style=&quot;color: rgb(0, 0, 0); font-family: Helvetica; font-size: 16px; font-style: normal; font-variant-ligatures: normal; font-variant-caps: normal; letter-spacing: normal; orphans: 2; text-indent: 0px; text-transform: none; widows: 2; word-spacing: 0px; -webkit-text-stroke-width: 0px; text-decoration-thickness: initial; text-decoration-style: initial; text-decoration-color: initial; float: none; display: inline !important;&quot;&gt;«&lt;span style=&quot;border-color: var(--border-color); font-size: 16px;&quot;&gt;Application&lt;/span&gt;»&lt;/span&gt;&lt;br style=&quot;border-color: var(--border-color); color: rgb(0, 0, 0); font-family: Helvetica; font-size: 16px; font-style: normal; font-variant-ligatures: normal; font-variant-caps: normal; font-weight: 400; letter-spacing: normal; orphans: 2; text-indent: 0px; text-transform: none; widows: 2; word-spacing: 0px; -webkit-text-stroke-width: 0px; text-decoration-thickness: initial; text-decoration-style: initial; text-decoration-color: initial;&quot;&gt;&lt;b style=&quot;font-size: 16px;&quot;&gt;ScanHub UI&lt;/b&gt;" style="text;whiteSpace=wrap;html=1;labelBackgroundColor=none;align=center;rounded=0;fontSize=16;" vertex="1" parent="1">
          <mxGeometry x="-120" y="-220" width="760" height="50" as="geometry" />
        </mxCell>
        <mxCell id="j5KQa3_2x4oAnSILvBNY-40" value="" style="endArrow=none;html=1;rounded=0;exitX=0;exitY=0.25;exitDx=0;exitDy=0;entryX=0.5;entryY=1;entryDx=0;entryDy=0;edgeStyle=orthogonalEdgeStyle;startArrow=classic;startFill=1;endFill=0;fontSize=16;" edge="1" parent="1" source="j5KQa3_2x4oAnSILvBNY-43" target="j5KQa3_2x4oAnSILvBNY-72">
          <mxGeometry width="50" height="50" relative="1" as="geometry">
            <mxPoint x="359" y="220" as="sourcePoint" />
            <mxPoint x="425" y="-100" as="targetPoint" />
            <Array as="points">
              <mxPoint x="600" y="157" />
              <mxPoint x="600" y="-20" />
              <mxPoint x="550" y="-20" />
            </Array>
          </mxGeometry>
        </mxCell>
        <mxCell id="j5KQa3_2x4oAnSILvBNY-41" value="" style="endArrow=classic;html=1;rounded=0;entryX=0;entryY=0.25;entryDx=0;entryDy=0;edgeStyle=orthogonalEdgeStyle;startArrow=none;startFill=0;endFill=1;exitX=0.5;exitY=1;exitDx=0;exitDy=0;fontSize=16;" edge="1" parent="1" source="j5KQa3_2x4oAnSILvBNY-68" target="j5KQa3_2x4oAnSILvBNY-30">
          <mxGeometry width="50" height="50" relative="1" as="geometry">
            <mxPoint x="165" y="-100" as="sourcePoint" />
            <mxPoint x="215" y="190" as="targetPoint" />
            <Array as="points">
              <mxPoint x="260" y="-20" />
              <mxPoint x="160" y="-20" />
              <mxPoint x="160" y="175" />
            </Array>
          </mxGeometry>
        </mxCell>
        <mxCell id="j5KQa3_2x4oAnSILvBNY-42" value="" style="endArrow=classic;html=1;rounded=0;edgeStyle=orthogonalEdgeStyle;startArrow=none;startFill=0;endFill=1;exitX=0.5;exitY=1;exitDx=0;exitDy=0;entryX=0.5;entryY=0;entryDx=0;entryDy=0;fontSize=16;" edge="1" parent="1" source="j5KQa3_2x4oAnSILvBNY-71" target="j5KQa3_2x4oAnSILvBNY-47">
          <mxGeometry width="50" height="50" relative="1" as="geometry">
            <mxPoint x="105" y="-100" as="sourcePoint" />
            <mxPoint x="101" y="190" as="targetPoint" />
            <Array as="points">
              <mxPoint x="-30" y="-20" />
              <mxPoint x="-130" y="-20" />
            </Array>
          </mxGeometry>
        </mxCell>
        <mxCell id="j5KQa3_2x4oAnSILvBNY-43" value="Workflow Engine" style="rounded=0;whiteSpace=wrap;html=1;fontSize=16;" vertex="1" parent="1">
          <mxGeometry x="653.6" y="141.25" width="139.2" height="62.5" as="geometry" />
        </mxCell>
        <mxCell id="j5KQa3_2x4oAnSILvBNY-44" value="Message Broker" style="rounded=0;whiteSpace=wrap;html=1;rotation=-90;fontSize=16;" vertex="1" parent="1">
          <mxGeometry x="740" y="142.5" width="260" height="60" as="geometry" />
        </mxCell>
        <mxCell id="j5KQa3_2x4oAnSILvBNY-45" value="" style="endArrow=classic;startArrow=classic;html=1;rounded=0;entryX=1;entryY=0.5;entryDx=0;entryDy=0;exitX=0.5;exitY=0;exitDx=0;exitDy=0;exitPerimeter=0;fontSize=16;" edge="1" parent="1" source="j5KQa3_2x4oAnSILvBNY-44" target="j5KQa3_2x4oAnSILvBNY-43">
          <mxGeometry width="50" height="50" relative="1" as="geometry">
            <mxPoint x="496.99999999999994" y="240" as="sourcePoint" />
            <mxPoint x="555" y="190" as="targetPoint" />
          </mxGeometry>
        </mxCell>
        <mxCell id="j5KQa3_2x4oAnSILvBNY-46" value="Device Manager" style="rounded=0;whiteSpace=wrap;html=1;fontSize=16;" vertex="1" parent="1">
          <mxGeometry x="-350" y="160" width="120" height="60" as="geometry" />
        </mxCell>
        <mxCell id="j5KQa3_2x4oAnSILvBNY-47" value="Acquisition Control" style="rounded=0;whiteSpace=wrap;html=1;points=[[0,0,0,0,0],[0,0.25,0,0,0],[0,0.5,0,0,0],[0,0.75,0,0,0],[0,1,0,0,0],[0.2,1,0,0,0],[0.25,0,0,0,0],[0.4,1,0,0,0],[0.5,0,0,0,0],[0.6,1,0,0,0],[0.75,0,0,0,0],[0.8,1,0,0,0],[1,0,0,0,0],[1,0.25,0,0,0],[1,0.5,0,0,0],[1,0.75,0,0,0],[1,1,0,0,0]];fontSize=16;" vertex="1" parent="1">
          <mxGeometry x="-190" y="160" width="120" height="60" as="geometry" />
        </mxCell>
        <mxCell id="j5KQa3_2x4oAnSILvBNY-48" value="" style="endArrow=none;html=1;rounded=0;entryX=0;entryY=0.5;entryDx=0;entryDy=0;edgeStyle=orthogonalEdgeStyle;startArrow=classic;startFill=1;endFill=0;exitX=1;exitY=0.5;exitDx=0;exitDy=0;jumpStyle=arc;jumpSize=10;fontSize=16;" edge="1" parent="1" source="j5KQa3_2x4oAnSILvBNY-46" target="j5KQa3_2x4oAnSILvBNY-47">
          <mxGeometry width="50" height="50" relative="1" as="geometry">
            <mxPoint x="-290" y="660" as="sourcePoint" />
            <mxPoint x="-260" y="230" as="targetPoint" />
            <Array as="points">
              <mxPoint x="-210" y="190" />
            </Array>
          </mxGeometry>
        </mxCell>
        <mxCell id="j5KQa3_2x4oAnSILvBNY-49" value="" style="endArrow=classic;html=1;rounded=0;exitX=0;exitY=0.5;exitDx=0;exitDy=0;entryX=1;entryY=0.25;entryDx=0;entryDy=0;edgeStyle=orthogonalEdgeStyle;startArrow=none;startFill=0;endFill=1;fontSize=16;" edge="1" parent="1" source="j5KQa3_2x4oAnSILvBNY-46" target="j5KQa3_2x4oAnSILvBNY-20">
          <mxGeometry width="50" height="50" relative="1" as="geometry">
            <mxPoint x="-220" y="540" as="sourcePoint" />
            <mxPoint x="-285" y="800" as="targetPoint" />
            <Array as="points">
              <mxPoint x="-430" y="190" />
              <mxPoint x="-430" y="145" />
            </Array>
          </mxGeometry>
        </mxCell>
        <mxCell id="j5KQa3_2x4oAnSILvBNY-51" value="" style="endArrow=none;html=1;rounded=0;entryX=0.8;entryY=1;entryDx=0;entryDy=0;edgeStyle=orthogonalEdgeStyle;startArrow=classic;startFill=1;endFill=0;jumpStyle=arc;jumpSize=10;exitX=0;exitY=0.75;exitDx=0;exitDy=0;entryPerimeter=0;fontSize=16;" edge="1" parent="1" source="j5KQa3_2x4oAnSILvBNY-43" target="j5KQa3_2x4oAnSILvBNY-47">
          <mxGeometry width="50" height="50" relative="1" as="geometry">
            <mxPoint x="620" y="200" as="sourcePoint" />
            <mxPoint x="-60" y="265" as="targetPoint" />
            <Array as="points">
              <mxPoint x="600" y="188" />
              <mxPoint x="600" y="310" />
              <mxPoint x="-94" y="310" />
            </Array>
          </mxGeometry>
        </mxCell>
        <mxCell id="j5KQa3_2x4oAnSILvBNY-52" value="&lt;span style=&quot;color: rgb(0, 0, 0); font-family: Helvetica; font-size: 16px; font-style: normal; font-variant-ligatures: normal; font-variant-caps: normal; font-weight: 400; letter-spacing: normal; orphans: 2; text-indent: 0px; text-transform: none; widows: 2; word-spacing: 0px; -webkit-text-stroke-width: 0px; text-decoration-thickness: initial; text-decoration-style: initial; text-decoration-color: initial; float: none; display: inline !important;&quot;&gt;«Layer»&lt;/span&gt;&lt;br style=&quot;border-color: var(--border-color); color: rgb(0, 0, 0); font-family: Helvetica; font-size: 16px; font-style: normal; font-variant-ligatures: normal; font-variant-caps: normal; font-weight: 400; letter-spacing: normal; orphans: 2; text-indent: 0px; text-transform: none; widows: 2; word-spacing: 0px; -webkit-text-stroke-width: 0px; text-decoration-thickness: initial; text-decoration-style: initial; text-decoration-color: initial;&quot;&gt;&lt;b style=&quot;font-size: 16px;&quot;&gt;Study Management&lt;/b&gt;" style="text;whiteSpace=wrap;html=1;labelBackgroundColor=none;align=center;rounded=0;fontSize=16;" vertex="1" parent="1">
          <mxGeometry x="-20" y="70" width="570" height="50" as="geometry" />
        </mxCell>
        <mxCell id="j5KQa3_2x4oAnSILvBNY-53" value="" style="rounded=0;whiteSpace=wrap;html=1;fillColor=#fad7ac;strokeColor=#b46504;fontSize=16;" vertex="1" parent="1">
          <mxGeometry x="317.3076923076923" y="130" width="211.53846153846155" height="130" as="geometry" />
        </mxCell>
        <mxCell id="j5KQa3_2x4oAnSILvBNY-54" value="Sequence Manager" style="rounded=0;whiteSpace=wrap;html=1;fontSize=16;" vertex="1" parent="1">
          <mxGeometry x="358.5837476547843" y="180" width="128.98686679174486" height="60" as="geometry" />
        </mxCell>
        <mxCell id="j5KQa3_2x4oAnSILvBNY-55" value="&lt;span style=&quot;color: rgb(0, 0, 0); font-family: Helvetica; font-size: 16px; font-style: normal; font-variant-ligatures: normal; font-variant-caps: normal; font-weight: 400; letter-spacing: normal; orphans: 2; text-indent: 0px; text-transform: none; widows: 2; word-spacing: 0px; -webkit-text-stroke-width: 0px; text-decoration-thickness: initial; text-decoration-style: initial; text-decoration-color: initial; float: none; display: inline !important;&quot;&gt;«Layer»&lt;/span&gt;&lt;br style=&quot;border-color: var(--border-color); color: rgb(0, 0, 0); font-family: Helvetica; font-size: 16px; font-style: normal; font-variant-ligatures: normal; font-variant-caps: normal; font-weight: 400; letter-spacing: normal; orphans: 2; text-indent: 0px; text-transform: none; widows: 2; word-spacing: 0px; -webkit-text-stroke-width: 0px; text-decoration-thickness: initial; text-decoration-style: initial; text-decoration-color: initial;&quot;&gt;&lt;b style=&quot;font-size: 16px;&quot;&gt;MR&lt;/b&gt;" style="text;whiteSpace=wrap;html=1;labelBackgroundColor=none;align=center;rounded=0;fontSize=16;" vertex="1" parent="1">
          <mxGeometry x="317.3076923076923" y="130" width="211.53846153846155" height="50" as="geometry" />
        </mxCell>
        <mxCell id="j5KQa3_2x4oAnSILvBNY-56" value="Patient Manager" style="rounded=0;whiteSpace=wrap;html=1;fontSize=16;" vertex="1" parent="1">
          <mxGeometry x="-0.002188868042523495" y="160" width="128.98686679174486" height="60" as="geometry" />
        </mxCell>
        <mxCell id="j5KQa3_2x4oAnSILvBNY-57" value="" style="endArrow=classic;html=1;rounded=0;edgeStyle=orthogonalEdgeStyle;startArrow=none;startFill=0;endFill=1;exitX=0.25;exitY=1;exitDx=0;exitDy=0;entryX=0.5;entryY=0;entryDx=0;entryDy=0;fontSize=16;" edge="1" parent="1" source="j5KQa3_2x4oAnSILvBNY-70" target="j5KQa3_2x4oAnSILvBNY-56">
          <mxGeometry width="50" height="50" relative="1" as="geometry">
            <mxPoint x="431" y="140" as="sourcePoint" />
            <mxPoint x="-30" y="-30" as="targetPoint" />
            <Array as="points">
              <mxPoint x="85" y="-20" />
              <mxPoint x="64" y="-20" />
            </Array>
          </mxGeometry>
        </mxCell>
        <mxCell id="j5KQa3_2x4oAnSILvBNY-58" value="" style="endArrow=classic;html=1;rounded=0;entryX=0;entryY=0.75;entryDx=0;entryDy=0;edgeStyle=orthogonalEdgeStyle;startArrow=none;startFill=0;endFill=1;exitX=0.75;exitY=1;exitDx=0;exitDy=0;fontSize=16;" edge="1" parent="1" source="j5KQa3_2x4oAnSILvBNY-70" target="j5KQa3_2x4oAnSILvBNY-30">
          <mxGeometry width="50" height="50" relative="1" as="geometry">
            <mxPoint x="145" y="-110" as="sourcePoint" />
            <mxPoint x="110" y="250" as="targetPoint" />
            <Array as="points">
              <mxPoint x="145" y="205" />
            </Array>
          </mxGeometry>
        </mxCell>
        <mxCell id="j5KQa3_2x4oAnSILvBNY-59" value="" style="endArrow=none;html=1;rounded=0;exitX=0;exitY=0.5;exitDx=0;exitDy=0;entryX=0.5;entryY=1;entryDx=0;entryDy=0;edgeStyle=orthogonalEdgeStyle;startArrow=classic;startFill=1;endFill=0;fontSize=16;" edge="1" parent="1" source="j5KQa3_2x4oAnSILvBNY-54" target="j5KQa3_2x4oAnSILvBNY-69">
          <mxGeometry width="50" height="50" relative="1" as="geometry">
            <mxPoint x="-270" y="250" as="sourcePoint" />
            <mxPoint x="-570" y="155" as="targetPoint" />
            <Array as="points">
              <mxPoint x="330" y="210" />
              <mxPoint x="330" y="-20" />
              <mxPoint x="405" y="-20" />
            </Array>
          </mxGeometry>
        </mxCell>
        <mxCell id="j5KQa3_2x4oAnSILvBNY-60" value="" style="endArrow=none;html=1;rounded=0;entryX=0.75;entryY=1;entryDx=0;entryDy=0;edgeStyle=orthogonalEdgeStyle;startArrow=classic;startFill=1;endFill=0;exitX=0;exitY=0.5;exitDx=0;exitDy=0;exitPerimeter=0;fontSize=16;" edge="1" parent="1" source="j5KQa3_2x4oAnSILvBNY-75" target="j5KQa3_2x4oAnSILvBNY-54">
          <mxGeometry width="50" height="50" relative="1" as="geometry">
            <mxPoint x="680" y="610" as="sourcePoint" />
            <mxPoint x="415" y="-100" as="targetPoint" />
            <Array as="points">
              <mxPoint x="455" y="575" />
            </Array>
          </mxGeometry>
        </mxCell>
        <mxCell id="j5KQa3_2x4oAnSILvBNY-61" value="" style="endArrow=none;html=1;rounded=0;entryX=0.5;entryY=1;entryDx=0;entryDy=0;edgeStyle=orthogonalEdgeStyle;startArrow=classic;startFill=1;endFill=0;exitX=1;exitY=0;exitDx=0;exitDy=27.5;exitPerimeter=0;fontSize=16;" edge="1" parent="1" source="j5KQa3_2x4oAnSILvBNY-81" target="j5KQa3_2x4oAnSILvBNY-54">
          <mxGeometry width="50" height="50" relative="1" as="geometry">
            <mxPoint x="690" y="610" as="sourcePoint" />
            <mxPoint x="433" y="250" as="targetPoint" />
            <Array as="points">
              <mxPoint x="423" y="595" />
            </Array>
          </mxGeometry>
        </mxCell>
        <mxCell id="j5KQa3_2x4oAnSILvBNY-62" value="" style="endArrow=none;html=1;rounded=0;entryX=0.6;entryY=1;entryDx=0;entryDy=0;edgeStyle=orthogonalEdgeStyle;startArrow=classic;startFill=1;endFill=0;exitX=0.25;exitY=1;exitDx=0;exitDy=0;jumpStyle=arc;jumpSize=10;entryPerimeter=0;fontSize=16;" edge="1" parent="1" source="j5KQa3_2x4oAnSILvBNY-54" target="j5KQa3_2x4oAnSILvBNY-47">
          <mxGeometry width="50" height="50" relative="1" as="geometry">
            <mxPoint x="-150" y="530" as="sourcePoint" />
            <mxPoint x="100" y="240" as="targetPoint" />
            <Array as="points">
              <mxPoint x="391" y="330" />
              <mxPoint x="-118" y="330" />
            </Array>
          </mxGeometry>
        </mxCell>
        <mxCell id="j5KQa3_2x4oAnSILvBNY-63" value="" style="endArrow=none;html=1;rounded=0;entryX=0.5;entryY=1;entryDx=0;entryDy=0;edgeStyle=orthogonalEdgeStyle;startArrow=classic;startFill=1;endFill=0;exitX=0;exitY=0.5;exitDx=0;exitDy=0;exitPerimeter=0;jumpStyle=arc;jumpSize=10;fontSize=16;" edge="1" parent="1" source="j5KQa3_2x4oAnSILvBNY-82" target="j5KQa3_2x4oAnSILvBNY-56">
          <mxGeometry width="50" height="50" relative="1" as="geometry">
            <mxPoint x="155" y="-100" as="sourcePoint" />
            <mxPoint x="260" y="180" as="targetPoint" />
            <Array as="points">
              <mxPoint x="65" y="542" />
            </Array>
          </mxGeometry>
        </mxCell>
        <mxCell id="j5KQa3_2x4oAnSILvBNY-64" value="" style="endArrow=none;html=1;rounded=0;entryX=0.5;entryY=1;entryDx=0;entryDy=0;edgeStyle=orthogonalEdgeStyle;startArrow=classic;startFill=1;endFill=0;exitX=1;exitY=0.5;exitDx=0;exitDy=0;exitPerimeter=0;jumpStyle=arc;jumpSize=10;fontSize=16;" edge="1" parent="1" source="j5KQa3_2x4oAnSILvBNY-79" target="j5KQa3_2x4oAnSILvBNY-30">
          <mxGeometry width="50" height="50" relative="1" as="geometry">
            <mxPoint x="200" y="568" as="sourcePoint" />
            <mxPoint x="260" y="240" as="targetPoint" />
            <Array as="points">
              <mxPoint x="-120" y="510" />
              <mxPoint x="-120" y="370" />
              <mxPoint x="235" y="370" />
              <mxPoint x="235" y="220" />
            </Array>
          </mxGeometry>
        </mxCell>
        <mxCell id="j5KQa3_2x4oAnSILvBNY-65" value="" style="endArrow=classic;html=1;rounded=0;exitX=0.4;exitY=1;exitDx=0;exitDy=0;edgeStyle=orthogonalEdgeStyle;entryX=1;entryY=0.75;entryDx=0;entryDy=0;startArrow=none;startFill=0;endFill=1;exitPerimeter=0;fontSize=16;" edge="1" parent="1" source="j5KQa3_2x4oAnSILvBNY-47" target="j5KQa3_2x4oAnSILvBNY-14">
          <mxGeometry width="50" height="50" relative="1" as="geometry">
            <mxPoint x="-156" y="230" as="sourcePoint" />
            <mxPoint x="-530" y="185" as="targetPoint" />
            <Array as="points">
              <mxPoint x="-142" y="330" />
              <mxPoint x="-430" y="330" />
              <mxPoint x="-430" y="485" />
            </Array>
          </mxGeometry>
        </mxCell>
        <mxCell id="j5KQa3_2x4oAnSILvBNY-66" value="" style="endArrow=none;html=1;rounded=0;entryX=0.5;entryY=1;entryDx=0;entryDy=0;edgeStyle=orthogonalEdgeStyle;startArrow=classic;startFill=1;endFill=0;exitX=0;exitY=0.5;exitDx=0;exitDy=0;exitPerimeter=0;jumpStyle=arc;jumpSize=10;fontSize=16;" edge="1" parent="1" source="j5KQa3_2x4oAnSILvBNY-77" target="j5KQa3_2x4oAnSILvBNY-46">
          <mxGeometry width="50" height="50" relative="1" as="geometry">
            <mxPoint x="-150" y="530" as="sourcePoint" />
            <mxPoint x="120" y="240" as="targetPoint" />
            <Array as="points">
              <mxPoint x="-340" y="640" />
              <mxPoint x="-340" y="370" />
              <mxPoint x="-290" y="370" />
            </Array>
          </mxGeometry>
        </mxCell>
        <mxCell id="j5KQa3_2x4oAnSILvBNY-67" value="" style="endArrow=none;html=1;rounded=0;entryX=0.25;entryY=1;entryDx=0;entryDy=0;edgeStyle=orthogonalEdgeStyle;startArrow=classic;startFill=1;endFill=0;exitX=1;exitY=0.25;exitDx=0;exitDy=0;jumpStyle=arc;jumpSize=10;fontSize=16;" edge="1" parent="1" source="j5KQa3_2x4oAnSILvBNY-14" target="j5KQa3_2x4oAnSILvBNY-46">
          <mxGeometry width="50" height="50" relative="1" as="geometry">
            <mxPoint x="-290" y="660" as="sourcePoint" />
            <mxPoint x="-280" y="230" as="targetPoint" />
            <Array as="points">
              <mxPoint x="-450" y="455" />
              <mxPoint x="-450" y="310" />
              <mxPoint x="-320" y="310" />
            </Array>
          </mxGeometry>
        </mxCell>
        <mxCell id="j5KQa3_2x4oAnSILvBNY-68" value="Dicom Viewer" style="rounded=0;whiteSpace=wrap;html=1;flipH=1;fontSize=16;" vertex="1" parent="1">
          <mxGeometry x="200" y="-150" width="120" height="60" as="geometry" />
        </mxCell>
        <mxCell id="j5KQa3_2x4oAnSILvBNY-69" value="MR Sequence&lt;br style=&quot;font-size: 16px;&quot;&gt;Viewer/Controller" style="rounded=0;whiteSpace=wrap;html=1;fillColor=#fad7ac;strokeColor=#b46504;flipH=1;fontSize=16;" vertex="1" parent="1">
          <mxGeometry x="345" y="-150" width="120" height="60" as="geometry" />
        </mxCell>
        <mxCell id="j5KQa3_2x4oAnSILvBNY-70" value="EMR Viewer/Controller" style="rounded=0;whiteSpace=wrap;html=1;flipH=1;fontSize=16;" vertex="1" parent="1">
          <mxGeometry x="55" y="-150" width="120" height="60" as="geometry" />
        </mxCell>
        <mxCell id="j5KQa3_2x4oAnSILvBNY-71" value="Acquisition&lt;br style=&quot;font-size: 16px;&quot;&gt;Controller" style="rounded=0;whiteSpace=wrap;html=1;flipH=1;fontSize=16;" vertex="1" parent="1">
          <mxGeometry x="-90" y="-150" width="120" height="60" as="geometry" />
        </mxCell>
        <mxCell id="j5KQa3_2x4oAnSILvBNY-72" value="Workflow Viewer/Controller" style="rounded=0;whiteSpace=wrap;html=1;flipH=1;fontSize=16;" vertex="1" parent="1">
          <mxGeometry x="490" y="-150" width="120" height="60" as="geometry" />
        </mxCell>
        <mxCell id="j5KQa3_2x4oAnSILvBNY-73" value="&lt;span style=&quot;color: rgb(0, 0, 0); font-family: Helvetica; font-size: 16px; font-style: normal; font-variant-ligatures: normal; font-variant-caps: normal; font-weight: 400; letter-spacing: normal; orphans: 2; text-indent: 0px; text-transform: none; widows: 2; word-spacing: 0px; -webkit-text-stroke-width: 0px; text-decoration-thickness: initial; text-decoration-style: initial; text-decoration-color: initial; float: none; display: inline !important;&quot;&gt;«Layer»&lt;/span&gt;&lt;br style=&quot;border-color: var(--border-color); color: rgb(0, 0, 0); font-family: Helvetica; font-size: 16px; font-style: normal; font-variant-ligatures: normal; font-variant-caps: normal; font-weight: 400; letter-spacing: normal; orphans: 2; text-indent: 0px; text-transform: none; widows: 2; word-spacing: 0px; -webkit-text-stroke-width: 0px; text-decoration-thickness: initial; text-decoration-style: initial; text-decoration-color: initial;&quot;&gt;&lt;b style=&quot;font-size: 16px;&quot;&gt;Persistence&lt;/b&gt;" style="text;whiteSpace=wrap;html=1;labelBackgroundColor=none;align=center;rounded=0;fontSize=16;" vertex="1" parent="1">
          <mxGeometry x="-400" y="440" width="1320" height="50" as="geometry" />
        </mxCell>
        <mxCell id="j5KQa3_2x4oAnSILvBNY-74" value="" style="group;rounded=0;fontSize=16;" vertex="1" connectable="0" parent="1">
          <mxGeometry x="-298.5" y="470" width="1127" height="210" as="geometry" />
        </mxCell>
        <mxCell id="j5KQa3_2x4oAnSILvBNY-75" value="Sequence Database" style="shape=cylinder3;whiteSpace=wrap;html=1;boundedLbl=1;backgroundOutline=1;size=15;fillColor=#fad7ac;strokeColor=#b46504;rounded=0;fontSize=16;" vertex="1" parent="j5KQa3_2x4oAnSILvBNY-74">
          <mxGeometry x="987" y="65" width="140" height="80" as="geometry" />
        </mxCell>
        <mxCell id="j5KQa3_2x4oAnSILvBNY-76" value="" style="group;rounded=0;fontSize=16;" vertex="1" connectable="0" parent="j5KQa3_2x4oAnSILvBNY-74">
          <mxGeometry width="140" height="210" as="geometry" />
        </mxCell>
        <mxCell id="j5KQa3_2x4oAnSILvBNY-77" value="Device DB" style="shape=cylinder3;whiteSpace=wrap;html=1;boundedLbl=1;backgroundOutline=1;size=15;rounded=0;fontSize=16;" vertex="1" parent="j5KQa3_2x4oAnSILvBNY-76">
          <mxGeometry y="130" width="140" height="80" as="geometry" />
        </mxCell>
        <mxCell id="j5KQa3_2x4oAnSILvBNY-78" value="Workflow DB" style="shape=cylinder3;whiteSpace=wrap;html=1;boundedLbl=1;backgroundOutline=1;size=15;rounded=0;fontSize=16;" vertex="1" parent="j5KQa3_2x4oAnSILvBNY-76">
          <mxGeometry y="65" width="140" height="80" as="geometry" />
        </mxCell>
        <mxCell id="j5KQa3_2x4oAnSILvBNY-79" value="Exam DB" style="shape=cylinder3;whiteSpace=wrap;html=1;boundedLbl=1;backgroundOutline=1;size=15;rounded=0;fontSize=16;" vertex="1" parent="j5KQa3_2x4oAnSILvBNY-76">
          <mxGeometry width="140" height="80" as="geometry" />
        </mxCell>
        <mxCell id="j5KQa3_2x4oAnSILvBNY-80" value="" style="group;rounded=0;fontSize=16;" vertex="1" connectable="0" parent="j5KQa3_2x4oAnSILvBNY-74">
          <mxGeometry x="494" y="32.5" width="140" height="145" as="geometry" />
        </mxCell>
        <mxCell id="j5KQa3_2x4oAnSILvBNY-81" value="Data Lake" style="shape=cylinder3;whiteSpace=wrap;html=1;boundedLbl=1;backgroundOutline=1;size=15;rounded=0;fontSize=16;" vertex="1" parent="j5KQa3_2x4oAnSILvBNY-80">
          <mxGeometry y="65" width="140" height="80" as="geometry" />
        </mxCell>
        <mxCell id="j5KQa3_2x4oAnSILvBNY-82" value="Patient DB" style="shape=cylinder3;whiteSpace=wrap;html=1;boundedLbl=1;backgroundOutline=1;size=15;rounded=0;fontSize=16;" vertex="1" parent="j5KQa3_2x4oAnSILvBNY-80">
          <mxGeometry width="140" height="80" as="geometry" />
        </mxCell>
        <mxCell id="j5KQa3_2x4oAnSILvBNY-83" value="" style="group;rounded=0;fontSize=16;" vertex="1" connectable="0" parent="1">
          <mxGeometry x="-640" y="-237.05" width="160" height="154.1" as="geometry" />
        </mxCell>
        <mxCell id="j5KQa3_2x4oAnSILvBNY-84" value="" style="rounded=0;whiteSpace=wrap;html=1;fontSize=16;" vertex="1" parent="j5KQa3_2x4oAnSILvBNY-83">
          <mxGeometry width="160" height="154.1" as="geometry" />
        </mxCell>
        <mxCell id="j5KQa3_2x4oAnSILvBNY-85" value="" style="pointerEvents=1;shadow=0;dashed=0;html=1;strokeColor=none;labelPosition=center;verticalLabelPosition=bottom;verticalAlign=top;align=center;fillColor=#505050;shape=mxgraph.mscae.intune.user_group;rounded=0;fontSize=16;" vertex="1" parent="j5KQa3_2x4oAnSILvBNY-83">
          <mxGeometry x="45" y="80" width="70" height="51.8" as="geometry" />
        </mxCell>
        <mxCell id="j5KQa3_2x4oAnSILvBNY-86" value="«User»&lt;br style=&quot;border-color: var(--border-color); font-size: 16px;&quot;&gt;&lt;b style=&quot;font-size: 16px;&quot;&gt;Medical Professional&lt;/b&gt;" style="text;whiteSpace=wrap;html=1;align=center;verticalAlign=middle;container=0;rounded=0;fontSize=16;" vertex="1" parent="j5KQa3_2x4oAnSILvBNY-83">
          <mxGeometry width="160" height="80" as="geometry" />
        </mxCell>
        <mxCell id="j5KQa3_2x4oAnSILvBNY-88" value="" style="group;rounded=0;fontSize=16;" vertex="1" connectable="0" parent="1">
          <mxGeometry x="980" y="-227.05" width="160" height="154.1" as="geometry" />
        </mxCell>
        <mxCell id="j5KQa3_2x4oAnSILvBNY-89" value="" style="rounded=0;whiteSpace=wrap;html=1;fontSize=16;" vertex="1" parent="j5KQa3_2x4oAnSILvBNY-88">
          <mxGeometry width="160" height="154.1" as="geometry" />
        </mxCell>
        <mxCell id="j5KQa3_2x4oAnSILvBNY-90" value="" style="pointerEvents=1;shadow=0;dashed=0;html=1;strokeColor=none;labelPosition=center;verticalLabelPosition=bottom;verticalAlign=top;align=center;fillColor=#505050;shape=mxgraph.mscae.intune.user_group;rounded=0;fontSize=16;" vertex="1" parent="j5KQa3_2x4oAnSILvBNY-88">
          <mxGeometry x="45" y="70" width="70" height="51.8" as="geometry" />
        </mxCell>
        <mxCell id="j5KQa3_2x4oAnSILvBNY-91" value="«User»&lt;br style=&quot;border-color: var(--border-color); font-size: 16px;&quot;&gt;&lt;b style=&quot;font-size: 16px;&quot;&gt;Developer, Researcher&lt;/b&gt;" style="text;whiteSpace=wrap;html=1;align=center;verticalAlign=middle;container=0;rounded=0;fontSize=16;" vertex="1" parent="j5KQa3_2x4oAnSILvBNY-88">
          <mxGeometry width="160" height="70" as="geometry" />
        </mxCell>
        <mxCell id="j5KQa3_2x4oAnSILvBNY-92" style="edgeStyle=orthogonalEdgeStyle;rounded=0;orthogonalLoop=1;jettySize=auto;html=1;entryX=0.5;entryY=0;entryDx=0;entryDy=0;fontSize=16;" edge="1" parent="1" source="j5KQa3_2x4oAnSILvBNY-89" target="j5KQa3_2x4oAnSILvBNY-3">
          <mxGeometry relative="1" as="geometry" />
        </mxCell>
        <mxCell id="j5KQa3_2x4oAnSILvBNY-93" value="Authentified user&amp;nbsp;interacts &lt;br&gt;via frontend" style="endArrow=classic;endSize=6;endFill=1;html=1;rounded=0;entryX=0;entryY=0.5;entryDx=0;entryDy=0;exitX=1;exitY=0.5;exitDx=0;exitDy=0;" edge="1" parent="1" source="j5KQa3_2x4oAnSILvBNY-84" target="j5KQa3_2x4oAnSILvBNY-36">
          <mxGeometry width="160" relative="1" as="geometry">
            <mxPoint x="-500" y="-140" as="sourcePoint" />
            <mxPoint x="-340" y="-140" as="targetPoint" />
          </mxGeometry>
        </mxCell>
        <mxCell id="j5KQa3_2x4oAnSILvBNY-95" value="Device triggered &lt;br&gt;by acquisition control" style="endArrow=classic;endSize=6;endFill=1;html=1;rounded=0;entryX=1;entryY=0.75;entryDx=0;entryDy=0;exitX=0.2;exitY=1;exitDx=0;exitDy=0;exitPerimeter=0;edgeStyle=orthogonalEdgeStyle;" edge="1" parent="1" source="j5KQa3_2x4oAnSILvBNY-47" target="j5KQa3_2x4oAnSILvBNY-20">
          <mxGeometry x="0.2588" width="160" relative="1" as="geometry">
            <mxPoint x="-574" y="-40" as="sourcePoint" />
            <mxPoint x="-254" y="-40" as="targetPoint" />
            <Array as="points">
              <mxPoint x="-166" y="260" />
              <mxPoint x="-450" y="260" />
              <mxPoint x="-450" y="175" />
            </Array>
            <mxPoint as="offset" />
          </mxGeometry>
        </mxCell>
      </root>
    </mxGraphModel>
  </diagram>
</mxfile>
